<?xml version="1.0" ?><svg viewBox="0 0 1000 1000" xmlns="http://www.w3.org/2000/svg"><path d="m526.51 652.36a80.89 80.89 0 0 0 24.13 7.79 6.59 6.59 0 0 0 4.63-.6 6.11 6.11 0 0 0 2.73-3.55c.66-2.85-.87-6.88-4.19-7.38a76.11 76.11 0 0 1 -11.42-2.62c-1.83-.58-3.65-1.23-5.44-1.94-.38-.15-1.84-.54-.28-.11a10.19 10.19 0 0 1 -1.32-.58c-.94-.42-1.86-.87-2.79-1.33-2.8-1.4-6.63-.84-8.21 2.15-1.43 2.72-.84 6.71 2.16 8.21z" fill="#2c2c38"/><path d="m327.27 657.13a335.07 335.07 0 0 0 63 30.23c10.5 3.79 21.27 7.33 32.26 9.4a108.71 108.71 0 0 0 22.1 2.27 146.47 146.47 0 0 0 22.57-2.57c13.09-2.29 26.08-5.26 39.1-8a23.4 23.4 0 0 0 12.55-9.65 15.69 15.69 0 0 0 2.49-7.8 15.93 15.93 0 0 0 -.38-8.38c-1.64-5.08-4.79-10-9.65-12.55l-5-2.12a21.17 21.17 0 0 0 -11.17 0l-22.68 4.69c-7.46 1.54-14.91 3.18-22.46 4.21l5.58-.75a85.79 85.79 0 0 1 -22.24.2l5.58.75c-9.33-1.27-18.43-3.91-27.37-6.8q-12.87-4.14-25.35-9.42l5 2.12a310 310 0 0 1 -42.74-22.15 15.69 15.69 0 0 0 -7.81-2.49 18.87 18.87 0 0 0 -15.51 4.14 15.81 15.81 0 0 0 -5.41 5.89c-2.58 4.87-3.87 10.78-2.12 16.18a22.43 22.43 0 0 0 9.65 12.55z" fill="#aaa9a9"/><path d="m385.34 643.51a53.45 53.45 0 0 0 -12.27 22.61c-.48 1.87 2.41 2.67 2.89.8a50.36 50.36 0 0 1 11.5-21.29c1.3-1.42-.82-3.55-2.12-2.12z" fill="#c1c1c1"/><path d="m530 642.85c-6.25-7.17-15.19-11.76-25.25-11a30.23 30.23 0 0 0 -23.75 15.26c-7.86 14.26-2.24 34.33 12.27 41.95 11.82 6.21 28.35 6.14 38.42-3.44 11.98-11.39 8.31-31.38-1.69-42.77z" fill="#e5a54a"/><path d="m531.1 641.79a33.43 33.43 0 0 0 -18.1-10.91 30.71 30.71 0 0 0 -20.8 3.2 31.1 31.1 0 0 0 -13.82 15.09 32.77 32.77 0 0 0 -1.88 18.16 33.8 33.8 0 0 0 7.88 16.59 32.64 32.64 0 0 0 16.44 9.63c12.9 3.34 28.56.17 36-11.81 6.83-11 4.15-26-2.83-36.26a37.21 37.21 0 0 0 -2.83-3.69c-1.26-1.46-3.37.67-2.12 2.12 7.36 8.53 11.13 21.51 7.13 32.36-4.46 12.13-18.18 16.85-30.14 15.25-5.82-.78-11.82-2.9-16.37-6.69a29.5 29.5 0 0 1 -9.12-13.72 30.91 30.91 0 0 1 -.76-16.49 27.51 27.51 0 0 1 9.77-15.2 28.35 28.35 0 0 1 18.09-6.16 28.67 28.67 0 0 1 17.92 7.17 36.87 36.87 0 0 1 3.48 3.48c1.22 1.46 3.34-.67 2.06-2.12z" fill="#e5a54a"/><path d="m499.79 679c-.31-1.75-1.19-3.62-.39-5.2.54-1.06 1.69-1.64 2.6-2.4 4-3.31 3.33-9.63 1.5-14.48-2.2-5.83-5.72-11.41-11-14.64a11.07 11.07 0 0 0 -5.91-1.84h-.54a29.28 29.28 0 0 0 -5 6.59c-7.86 14.26-2.24 34.33 12.27 41.95l.17.09a8.33 8.33 0 0 0 .82-.34c3.59-1.63 6.18-5.73 5.48-9.73z" fill="#d6903c"/><path d="m501.23 678.64c-.22-1.11-.87-2.51-.64-3.66s1.4-1.63 2.19-2.26a9.46 9.46 0 0 0 3.2-4.87c1.13-4 .13-8.43-1.39-12.2a32.83 32.83 0 0 0 -7.41-11.56 20.71 20.71 0 0 0 -5.64-4c-1.67-.76-4.93-2-6.59-.68a23.18 23.18 0 0 0 -4.7 5.94 29.94 29.94 0 0 0 -2.56 5.47 31.94 31.94 0 0 0 -1.69 11.27 34.43 34.43 0 0 0 8 21.34 30.4 30.4 0 0 0 4.58 4.35c1.41 1.08 3.89 3.33 5.74 2.66a11 11 0 0 0 7-11.8c-.29-1.9-3.18-1.09-2.89.8.54 3.57-2.08 7-5.29 8.26l1.15.15c-12.29-6.15-17.94-21.85-14.2-34.64a27.2 27.2 0 0 1 7-11.62l-1.09.41c4.19-.4 8.08 2.91 10.64 5.88a31 31 0 0 1 5.86 10.78c1 3.26 1.72 7.56-.44 10.53-1.11 1.52-3 2.18-4 3.87-1.11 2-.18 4.28.23 6.36.43 1.91 3.32 1.11 2.94-.78z" fill="#d6903c"/><path d="m303.22 447.23q-20.76 35.11-38.4 71.95a6.78 6.78 0 0 0 -.94 3.55 6.52 6.52 0 0 0 2.32 3.66 116.18 116.18 0 0 0 40.24 25.53 2.28 2.28 0 0 0 3.5-1.3l42.87-80.22" fill="#2c2c38"/><path d="m301.93 446.48q-12.16 20.52-23.26 41.74-5.61 10.68-10.93 21.52c-1.64 3.35-3.54 6.7-4.88 10.19-1.44 3.76.93 6.26 3.5 8.7a117.84 117.84 0 0 0 35 22.86c1.55.65 3.11 1.32 4.7 1.88 1.77.61 3.46.5 4.64-1.1a39.44 39.44 0 0 0 2.67-4.86l2.83-5.29 11.78-22 26.15-48.92c.91-1.7-1.68-3.22-2.59-1.52l-22.38 41.88-11.08 20.71-5.42 10.14-2.7 5.07c-.44.81-.85 1.62-1.3 2.42-.13.23-.3.72-.55.85-.43.24-1.24-.24-1.65-.39a112.92 112.92 0 0 1 -34.18-20.39c-1.17-1-2.33-2.06-3.46-3.13s-2.77-2.23-3.29-3.7.78-3.51 1.44-4.9q1.26-2.61 2.53-5.21 5-10.2 10.22-20.26 11.77-22.77 24.8-44.77a1.5 1.5 0 0 0 -2.59-1.51z" fill="#2c2c38"/><path d="m332.63 349.14c-7.47 2-16-4-16.7-11.68a16.87 16.87 0 0 1 -22.48-17.9 11.32 11.32 0 0 1 -7.5-11.18c-.34 3.75-5.08 5.1-8.84 5.23a74.39 74.39 0 0 1 -34.39-7.14c-5-2.4-9.88-5.44-13.37-9.79s-5.46-10.14-4.24-15.57c-4.67-6.78-1.62-17.5 5.92-20.81-7-5-7.56-16.71-1.1-22.36-8.76 4.05-18.71-2.78-24.74-10.32-3.27-4.09-6.23-8.87-6.17-14.11s4.35-10.69 9.57-10.22c-6.88.92-12.73-6.35-12.62-13.28s4.46-13.08 9.34-18c14.26-14.37 34.44-22.22 54.67-23s40.43 5.11 58 15.18c13.43 7.69 26.44 19.6 27.45 35.05a16.33 16.33 0 0 1 18.26 26.08 14.15 14.15 0 0 1 8.58 24c1.24-3.92 6.69-5.22 10.29-3.23s5.46 6.18 6.08 10.25a25.91 25.91 0 0 1 -6 20.58 11.16 11.16 0 0 1 15.36 15.83 7.22 7.22 0 0 1 10.42 1.44c1.23-2.36 5.22-1.38 6.33 1s.31 5.24-.51 7.77c2.33-2.18 6.28-1.87 8.76.14s3.65 5.27 3.85 8.45a18.78 18.78 0 0 1 -11.47 18.18c3.09 7.07-4.56 16.13-12.05 14.25.79 5.92-4.4 11.31-10.16 12.89s-11.87.34-17.7-.91" fill="#d6d6d6"/><path d="m332.24 347.7c-6.57 1.62-14.08-3.44-14.81-10.24a1.52 1.52 0 0 0 -1.9-1.45 15.37 15.37 0 0 1 -20.53-16.45 1.49 1.49 0 0 0 -1.1-1.44 9.88 9.88 0 0 1 -6.4-9.74c.1-2-2.77-1.86-3 0-.3 2.43-3.55 3.26-5.54 3.57a45.26 45.26 0 0 1 -10.66-.07 72.23 72.23 0 0 1 -22.3-5.58c-6.4-2.76-13.06-6.46-16.85-12.54a17.88 17.88 0 0 1 -2.86-9.65c0-.89.2-1.73.3-2.6a3.12 3.12 0 0 0 -.72-2.08 11.45 11.45 0 0 1 -1.25-3.53 13.31 13.31 0 0 1 7.2-14.3c1.14-.51.81-2 0-2.59-6.24-4.59-6.45-14.92-.79-20 1.36-1.22-.37-3-1.82-2.36-6.91 3.08-14.39-1.44-19.31-6.14a38.49 38.49 0 0 1 -7-9c-1.78-3.2-3-7.06-1.86-10.68 1-3.34 3.93-6.31 7.63-6.06v-3c-5.8.66-10.32-4.72-11-10.1-.87-6.59 3.42-12.87 7.69-17.44 9.09-9.73 21.12-16.55 33.84-20.31 27.25-8.07 57.29-1.58 81.07 13.27 11.36 7.09 22.75 17.83 23.77 32 .07.87.93 1.82 1.9 1.44a14.84 14.84 0 0 1 16.8 23.58 1.52 1.52 0 0 0 1.06 2.56 12.65 12.65 0 0 1 7.52 21.43l2.51 1.46c.92-2.65 4.28-3.49 6.76-2.85 3.33.87 5.28 4.28 6.17 7.36 2.12 7.4-.09 15.84-5 21.63-1 1.21.31 3.36 1.82 2.35a9.67 9.67 0 0 1 13.09 13.85c-1.06 1.47 1.15 2.85 2.36 1.82a5.72 5.72 0 0 1 8.06 1.13 1.52 1.52 0 0 0 2.59 0c.75-1.26 2.78-.38 3.46.55 1.44 1.94.27 5.08-.37 7.1-.49 1.52 1.44 2.39 2.5 1.46 2.27-2 5.75-1 7.61 1.05 2.16 2.38 2.69 5.93 2.42 9a17.35 17.35 0 0 1 -10.3 14.2c-.68.28-1.39 1-1.05 1.85 2.52 6.08-3.59 13.93-10.2 12.41-.85-.2-2 .42-1.9 1.44.56 4.95-3.16 9.14-7.53 10.93-5.83 2.38-12.54.86-18.44-.4-1.88-.4-2.68 2.49-.79 2.89 6.85 1.47 14.41 3 21.07 0 5.07-2.31 9.35-7.55 8.69-13.38l-1.9 1.45c8.6 2 17.35-7.77 13.89-16.1l-1 1.85a20.55 20.55 0 0 0 11.87-13.3c1.62-5.67.76-13.76-5-16.83a8.32 8.32 0 0 0 -9.44.85l2.51 1.46c1.06-3.34 2.15-7.92-.93-10.56-2.24-1.92-6-2.17-7.64.6h2.59a8.76 8.76 0 0 0 -12.77-1.74l2.35 1.82a12.65 12.65 0 0 0 -17.34-17.93l1.81 2.36a27.53 27.53 0 0 0 6.51-20.84c-.73-6.24-4.48-13.77-11.78-13.47a8.18 8.18 0 0 0 -7.65 5.25 1.51 1.51 0 0 0 2.51 1.46 15.65 15.65 0 0 0 -9.64-26.55l1.06 2.56a18.48 18.48 0 0 0 3.68-17.6 17.57 17.57 0 0 0 -13.34-11.79 17.77 17.77 0 0 0 -10.18.73l1.9 1.45c-1-13.58-10.45-24.25-21.09-31.82a112.1 112.1 0 0 0 -41.31-17.76 95 95 0 0 0 -44.47.91c-13.62 3.72-26.53 10.79-36.37 21-4.83 5-9.21 11.41-9.21 18.65 0 6 3.91 12.3 9.76 14.18a10.22 10.22 0 0 0 4.36.42 1.5 1.5 0 0 0 0-3c-4-.27-7.51 2.29-9.41 5.67a14.35 14.35 0 0 0 -.51 12.23 35.72 35.72 0 0 0 7.52 11.37 33 33 0 0 0 10.81 7.97 16.69 16.69 0 0 0 13.68.26l-1.81-2.36c-7.22 6.49-6.31 19.05 1.4 24.72v-2.62c-8.28 3.76-11.5 15.32-6.46 22.85l-.15-1.15a20.21 20.21 0 0 0 3.66 15.76c3.33 4.64 8.1 8 13.14 10.55a75.57 75.57 0 0 0 35.29 8.13c4.66-.08 11-1.14 11.7-6.77h-3a12.9 12.9 0 0 0 8.61 12.63l-1.06-1.44a18.37 18.37 0 0 0 24.38 19.35l-1.9-1.45c.94 8.74 10 15.26 18.6 13.13 1.88-.46 1.08-3.36-.79-2.89z" fill="#d6d6d6"/><g fill="#ef6e4b"><path d="m341.79 359.32a75 75 0 0 0 -16.25-2.39 89.57 89.57 0 0 0 8.8-3.58 66.09 66.09 0 0 1 -10-8.27 67.86 67.86 0 0 0 8.83 1.73c.39.05.9 0 1.06-.32a1 1 0 0 0 -.05-.68l-5.54-16.72 6.74 7.32a23.16 23.16 0 0 0 3.57 3.36l3.89-13.34 2 17.74c.06.48.21 1.08.69 1.18a1.29 1.29 0 0 0 1-.41 10.32 10.32 0 0 1 5.73-2.17 28.06 28.06 0 0 1 -5.82 6.66 47.8 47.8 0 0 1 8.37-.29 9.43 9.43 0 0 1 -4.87 4.08l5.08.54a15.83 15.83 0 0 1 -8 3.94"/><path d="m342.19 357.88a78.76 78.76 0 0 0 -16.65-2.45l.4 2.94a93.27 93.27 0 0 0 9.15-3.73 1.51 1.51 0 0 0 0-2.59 64.85 64.85 0 0 1 -9.69-8l-1.46 2.51a70.71 70.71 0 0 0 7.89 1.61c1 .15 2.21.43 3.13-.25 1.09-.82.8-2.06.43-3.17l-5.31-16-2.5 1.46 5.42 5.79a37.82 37.82 0 0 0 5.22 5.06 1.52 1.52 0 0 0 2.21-.9l3.89-13.35-3-.39 1.84 16c.19 1.72.32 4.87 2.92 4.36 1-.2 1.84-1.09 2.75-1.57a9.07 9.07 0 0 1 3.41-1l-1.24-2.21a27.93 27.93 0 0 1 -5.58 6.35 1.51 1.51 0 0 0 1.06 2.56 50.87 50.87 0 0 1 8.37-.29l-1.29-2.25a8.12 8.12 0 0 1 -4 3.38 1.51 1.51 0 0 0 .4 3l5.08.54-1.04-2.59a14.89 14.89 0 0 1 -7.35 3.55c-1.9.35-1.09 3.25.8 2.9a17.84 17.84 0 0 0 8.67-4.33c1.06-.95.12-2.43-1.06-2.56l-5.08-.54.4 2.95a11.5 11.5 0 0 0 5.77-4.77 1.52 1.52 0 0 0 -1.3-2.26 50.87 50.87 0 0 0 -8.37.29l1.06 2.56a30.46 30.46 0 0 0 6.05-7 1.51 1.51 0 0 0 -1.29-2.26 12.35 12.35 0 0 0 -5.46 1.67 3.51 3.51 0 0 0 -1 .71c-.56.3-.37.44.6.42 0-.3-.08-.59-.11-.89-.12-1.07-.24-2.13-.37-3.2l-1.55-13.55a1.51 1.51 0 0 0 -2.95-.4l-3.89 13.34 2.21-.89a36.25 36.25 0 0 1 -4.95-5l-5.13-5.44a1.51 1.51 0 0 0 -2.51 1.46l2.85 8.59 1.38 4.18.7 2.09a6 6 0 0 1 .61 2.14l.44-1.06c.36-.07.41-.11.15-.11a3 3 0 0 1 -.42-.05c-.41 0-.81-.11-1.21-.17-.78-.13-1.56-.26-2.34-.41-1.55-.3-3.09-.66-4.61-1.06a1.51 1.51 0 0 0 -1.46 2.51 69.36 69.36 0 0 0 10.3 8.5v-2.59a87.17 87.17 0 0 1 -8.44 3.43 1.51 1.51 0 0 0 .4 2.95 74.45 74.45 0 0 1 15.85 2.34c1.87.49 2.67-2.41.8-2.89z"/><path d="m376.64 346.38-4.31-5.57a24.93 24.93 0 0 0 5 .81 49.64 49.64 0 0 1 -4.4-11.4 44.73 44.73 0 0 1 6.43 5.14 60.54 60.54 0 0 1 .72-14.23l5.35 8.53c.27.45.64.94 1.16.95s.91-.47 1.2-.9c2.22-3.39 4.1-7.36 7.73-9.15q-1.11 5.25-2.52 10.44l11.49-.86a1.28 1.28 0 0 1 .91.17c.45.4.1 1.14-.28 1.61a27.23 27.23 0 0 1 -8.55 7 3.72 3.72 0 0 0 2.59 1.32 6.87 6.87 0 0 1 2.84.76 1.87 1.87 0 0 1 .61 2.58 2.68 2.68 0 0 1 -1.18.65l-9.86 3.36a16.41 16.41 0 0 1 4.79 5.42c-4 .22-6.92-4.56-10.91-4.39l2.48 6.13a61.11 61.11 0 0 1 -6.16-4.94l.25 1.54a12.55 12.55 0 0 1 -4.93-3.13"/><path d="m377.7 345.32-4.31-5.57-1.46 2.5a29.91 29.91 0 0 0 5.41.87 1.51 1.51 0 0 0 1.29-2.26 48.93 48.93 0 0 1 -4.24-11l-2.21 1.7a44.5 44.5 0 0 1 6.13 4.9 1.52 1.52 0 0 0 2.56-1.06 61 61 0 0 1 .67-13.83l-2.74.36 4.45 7.11c1.06 1.69 2.71 4.36 5 2.48a9.48 9.48 0 0 0 1.77-2.43c.56-.9 1.11-1.81 1.7-2.69a12.74 12.74 0 0 1 4.6-4.51l-2.21-1.69q-1.12 5.25-2.57 10.42a1.51 1.51 0 0 0 1.45 1.9l6.22-.46 3.36-.25 1.43-.11c.27 0 .53 0 .8-.05-.3-1-.55-1.28-.74-.83-.2.07-.65.83-.81 1s-.55.61-.84.9c-.63.64-1.28 1.25-2 1.82a26.22 26.22 0 0 1 -4.65 3.08 1.52 1.52 0 0 0 -.3 2.36 5.18 5.18 0 0 0 3.25 1.7 11.73 11.73 0 0 1 1.84.36c.2.08.73.25.77.53s0 0-.2.22a8.43 8.43 0 0 1 -2.25.77l-2.59.88-5.16 1.76a1.53 1.53 0 0 0 -.36 2.75 15.17 15.17 0 0 1 4.25 4.87l1.3-2.25c-2 0-3.65-1.29-5.24-2.33a10.25 10.25 0 0 0 -5.67-2.06 1.51 1.51 0 0 0 -1.4 1.82l2.47 6.13 2.2-1.69a64.44 64.44 0 0 1 -5.85-4.71 1.51 1.51 0 0 0 -2.51 1.46l.25 1.54 1.85-1.85a11.48 11.48 0 0 1 -4.27-2.74 1.5 1.5 0 0 0 -2.14 2.16 15 15 0 0 0 5.6 3.51c1.18.43 2-.82 1.84-1.84l-.25-1.54-2.5 1.46a71.45 71.45 0 0 0 6.46 5.18c1 .72 2.69-.5 2.2-1.69l-2.47-6.14-1.45 1.9c2 0 3.65 1.33 5.24 2.37a10 10 0 0 0 5.67 2 1.52 1.52 0 0 0 1.29-2.26 18.64 18.64 0 0 0 -5.33-5.95l-.36 2.74 7.05-2.41c1.69-.57 4.31-.95 5.15-2.74a3.52 3.52 0 0 0 -1.72-4.37c-1.45-.81-3.75-.37-4.81-1.72l-.3 2.35a30.07 30.07 0 0 0 5.87-4.08c1.38-1.24 3.93-3.25 3.91-5.31 0-2.87-3.7-2.08-5.49-1.94l-8.62.64 1.45 1.9q1.44-5.17 2.56-10.42a1.52 1.52 0 0 0 -2.2-1.7c-3.3 1.72-5.28 4.89-7.18 8-.23.37-.45.74-.69 1.11l-.4.62c-.3.28-.18.34.38.17.13-.29-1.48-2.34-1.67-2.65l-3.82-6.1c-.63-1-2.52-1-2.74.36a64 64 0 0 0 -.78 14.63l2.56-1.06a48.93 48.93 0 0 0 -6.73-5.37 1.52 1.52 0 0 0 -2.21 1.69 52.84 52.84 0 0 0 4.49 11.74l1.3-2.26a25.64 25.64 0 0 1 -4.61-.76 1.52 1.52 0 0 0 -1.46 2.51l4.31 5.57a1.5 1.5 0 0 0 2.12 0 1.54 1.54 0 0 0 0-2.12z"/><path d="m397.92 369.47a14.56 14.56 0 0 0 -5.59-4.17c1.33-.27 2.52 1.3 3.85 1l-1.47-5.5c-.11-.39-.11-.95.28-1a.74.74 0 0 1 .58.22 15 15 0 0 0 3.23 2.45 1.43 1.43 0 0 0 1 .12 1.64 1.64 0 0 0 .64-.5l3.79-4.17c-.38 3.08-1.92 5.87-3.42 8.59 2.52-.67 4.07-3.38 6.56-4.16.23 1.33-.87 2.5-1.93 3.34a31.31 31.31 0 0 1 -6.19 3.83"/><path d="m399 368.41a15.91 15.91 0 0 0 -5.89-4.41l-.36 2.75a7.55 7.55 0 0 1 1.31.63 4.2 4.2 0 0 0 2.54.39 1.51 1.51 0 0 0 1-1.84l-.81-3-.38-1.44c-.07-.24-.13-.49-.2-.73-.19-.64.13.11-.48.37l-.76.21h.21l-.76-.21a15.47 15.47 0 0 1 2.38 1.93 4 4 0 0 0 3.24 1c1.14-.28 1.88-1.4 2.63-2.23l2.6-2.85-2.51-1.46c-.41 3-1.83 5.62-3.27 8.23a1.52 1.52 0 0 0 1.71 2.25 10.18 10.18 0 0 0 3.62-2.15 9.67 9.67 0 0 1 2.94-2l-1.9-1.45c.16 1.4-1.61 2.41-2.59 3.1a32.64 32.64 0 0 1 -4.79 2.78 1.51 1.51 0 0 0 -.54 2 1.55 1.55 0 0 0 2.06.54 32.28 32.28 0 0 0 5.66-3.42c1.59-1.21 3.47-2.81 3.2-5a1.52 1.52 0 0 0 -1.9-1.44 11 11 0 0 0 -3.6 2.22 8.38 8.38 0 0 1 -3 1.93l1.7 2.21c1.55-2.81 3.13-5.73 3.57-8.95a1.58 1.58 0 0 0 -.69-1.7 1.53 1.53 0 0 0 -1.82.24l-1.89 2.08a19.69 19.69 0 0 0 -1.9 2.09c-.21.31-.19.11 0 .13s-.17-.18-.2-.2a5.07 5.07 0 0 1 -.87-.58c-.61-.5-1.16-1.06-1.79-1.54a2 2 0 0 0 -2.68 0 2.46 2.46 0 0 0 -.55 2.34c.39 1.88 1 3.74 1.49 5.59l1-1.85a6.35 6.35 0 0 1 -1.31-.63 4.29 4.29 0 0 0 -2.54-.4 1.51 1.51 0 0 0 -.36 2.74 13.93 13.93 0 0 1 5.29 4 1.52 1.52 0 0 0 2.12 0 1.55 1.55 0 0 0 0-2.13z"/><path d="m406.65 386.94a37.85 37.85 0 0 1 -5.13-4.83 11.7 11.7 0 0 0 3 1.62.72.72 0 0 0 .59 0c.23-.12.26-.42.27-.68l.16-6.67 2.74 5.2c2.11-2.05 1.72-6.15 4.35-7.48l.16 7.36c0 .27.07.63.35.68a.55.55 0 0 0 .42-.12l7.71-4.48c.54.32.25 1.14-.12 1.65a25.5 25.5 0 0 1 -6.9 6.56 10.36 10.36 0 0 1 5.32 3.88 34.62 34.62 0 0 1 -7.47.39 3.11 3.11 0 0 1 2.27 2.23 28.11 28.11 0 0 1 -7.24-4.59"/><path d="m407.71 385.88a39.1 39.1 0 0 1 -5.13-4.83l-1.82 2.35c1.43 1 5 3.31 6 .59a12.13 12.13 0 0 0 .21-3.46l.1-4.12-2.8.76 2.74 5.19a1.51 1.51 0 0 0 2.36.31 10.28 10.28 0 0 0 2.17-4.1c.39-1.15.73-2.51 1.87-3.14l-2.25-1.3.12 5.42c0 1.38-.27 3.61 1.49 4.07a3 3 0 0 0 2.23-.62l2.35-1.37 4.69-2.73-1.82-.23c0-.49-.11-.62-.22-.37a5 5 0 0 1 -.33.47c-.25.34-.51.67-.79 1-.49.59-1 1.16-1.56 1.7a24.59 24.59 0 0 1 -3.82 3.07 1.52 1.52 0 0 0 .36 2.74 8.86 8.86 0 0 1 4.42 3.19l.9-2.2a34.85 34.85 0 0 1 -7.07.33c-1.72-.09-2 2.49-.4 2.95a1.66 1.66 0 0 1 1.23 1.18l2.2-1.7a27.48 27.48 0 0 1 -6.94-4.35c-1.46-1.26-3.59.86-2.12 2.12a30.33 30.33 0 0 0 7.54 4.82 1.52 1.52 0 0 0 2.21-1.69 4.79 4.79 0 0 0 -3.32-3.28l-.4 2.95a37.7 37.7 0 0 0 7.87-.44 1.5 1.5 0 0 0 .89-2.2 12.19 12.19 0 0 0 -6.21-4.57l.36 2.74a27.64 27.64 0 0 0 5.55-4.74c1.22-1.37 3.8-4.06 1.77-5.83a1.53 1.53 0 0 0 -1.81-.24c-2.62 1.53-5.21 3.24-7.92 4.59l.76-.21h-.22l.75.21c.31.7.44.84.4.41v-.39-1l-.1-1.93-.08-3.87a1.52 1.52 0 0 0 -2.26-1.29 6.65 6.65 0 0 0 -2.86 3.79c-.49 1.33-.77 2.87-1.79 3.92l2.35.3-2.73-5.2a1.52 1.52 0 0 0 -2.8.76l-.09 3.53v1.57 1 .39c-.05.49.13.31.54-.52h.8a9 9 0 0 1 -2.94-1.55c-1.44-1.05-2.89 1.15-1.81 2.36a39.1 39.1 0 0 0 5.13 4.83 1.55 1.55 0 0 0 2.12 0 1.52 1.52 0 0 0 0-2.12z"/></g><path d="m317.6 383.89c.22-1.41-4.47-16.67-3-16.75 19.93-1.19 39.15 6 57 14.11 14.83 6.75 30.92 16.73 37.37 32.43l.39 1 .21.56c2 5.26-19-1.15-23.6 2" fill="#d6903c"/><path d="m319.1 383.89a11.35 11.35 0 0 0 -.59-3.4c-.42-1.8-.88-3.58-1.32-5.37s-.89-3.69-1.22-5.55a12.16 12.16 0 0 1 -.18-1.52 1.82 1.82 0 0 0 0-.33c-.06-.23-.11.18 0 .07-.1.09-.7.92-.77.82a9.45 9.45 0 0 0 1.38-.06c14.39-.49 28.48 3.39 41.77 8.6 11.63 4.57 23.43 9.79 33.4 17.44a54.05 54.05 0 0 1 12.18 12.62 39.39 39.39 0 0 1 4.11 7.85c.11.27.17.64.31.9-.17-.33.07-.15 0 0 .28-.46-.16.17.07-.33-.06.14 0-.09 0 0-.11-.18.37-.06 0 0s.2-.07 0 0a3.38 3.38 0 0 1 -.42.13 17.37 17.37 0 0 1 -4.9 0c-2.19-.16-4.37-.42-6.56-.62a50.86 50.86 0 0 0 -6.29-.31 9.62 9.62 0 0 0 -4.87 1.12c-1.62 1.05-.12 3.65 1.51 2.59a7.74 7.74 0 0 1 3.8-.72 56.72 56.72 0 0 1 6.11.34c3.73.36 7.76 1.18 11.51.56a3.41 3.41 0 0 0 2.95-2.13 3.25 3.25 0 0 0 -.19-2 40.56 40.56 0 0 0 -1.81-4.18 49.74 49.74 0 0 0 -11.44-14.63c-9.81-8.83-21.92-14.52-34-19.58-13.95-5.85-28.75-10.5-44-10.64-.91 0-1.83 0-2.74 0a10.71 10.71 0 0 0 -2.72.16 1.85 1.85 0 0 0 -1.28 1.44c-.33 1.44.19 3.17.48 4.57.77 3.77 1.9 7.46 2.64 11.24 0 .16.13.77.12.62s0 .22 0 .32c-.21 1.91 2.79 1.9 3 0z" fill="#d6903c"/><path d="m382.87 409a88.51 88.51 0 0 0 26.45-21.65c1.22-1.47-.89-3.61-2.12-2.12a86.28 86.28 0 0 1 -25.85 21.18c-1.7.91-.19 3.5 1.52 2.59z" fill="#7bc6c1"/><path d="m369.47 399.82c.29 1.55-.12-.53 0-.48s-.27 1.12 0 .2c.06-.21.12-.43.17-.65s.24-.63 0-.09.06-.09.14-.22.24-.38.35-.58c.27-.46-.68.65 0 0a5.42 5.42 0 0 0 .49-.46c0 .05-.66.42-.24.2a5 5 0 0 0 .58-.35c.48-.34-.74.18-.15.06.23-.05.48-.13.71-.19.52-.13.06 0-.05 0a16.38 16.38 0 0 1 2.1.07l.57.06.94.12c.66.09 1.33.19 2 .24a14.75 14.75 0 0 0 3.75-.25 9.54 9.54 0 0 0 6.21-4 8.91 8.91 0 0 0 1.35-3.59c.12-.73.2-1.46.29-2.19s-.19.66 0 0c.08-.29.14-.58.22-.87-.07.24-.09.79 0 .12 0 .2-.68.57-.05.11a3.84 3.84 0 0 1 -.63.42 4.38 4.38 0 0 1 -1.77.07l-.17-.08.53.27c.41.2.83.37 1.25.54a7.06 7.06 0 0 0 2.32.48 8.31 8.31 0 0 0 7.12-3.76 7.81 7.81 0 0 0 1.29-3.81 10.69 10.69 0 0 0 -.19-2.25c0-.16-.24-.59 0-.28.6 1-2.38 3-1 2.29a10.85 10.85 0 0 0 4.69-14.47c-1-2.16-4.27-2.83-6.16-1.62-2.24 1.45-2.63 3.85-1.61 6.16-.41-.94-.18-.4-.12-.16.15.53.27.12 0-.25.18.27 0 .83 0 1.14.08.55.27-.73 0-.24a2.06 2.06 0 0 0 -.18.63c-.06.53.15-.37.15-.32 0 .23-.35.49-.39.71-.11.49.52-.45.12-.14a2.86 2.86 0 0 0 -.46.46c-.31.43.22-.29.28-.2s-.53.31-.59.35a7.12 7.12 0 0 0 -3.42 3.81 6.16 6.16 0 0 0 -.31 2.45c0 .54.18 1.09.23 1.63 0-.18 0-.64 0 0 0 0 .15-.95 0-.44s.34-.79.07-.24.51-.64.11-.2.84-.44 0-.06c0 0 .83-.27.35-.16s.91 0 .29 0 .9.17.28 0c-.42-.09.15.05.2.08a7.43 7.43 0 0 0 -5.42-1 8.1 8.1 0 0 0 -5.64 5.87 12.51 12.51 0 0 0 -.3 1.73c0 .4-.11.79-.16 1.2-.08.7.16-.69 0 0-.05.19-.08.4-.11.59-.19 1.18 0-.08.07 0s-.37.51.13 0c-.16.17-.79.53-.26.29s-.08 0-.23.08c-.45.27.3-.18.31-.14 0-.13-1.72.65-.46.19a7.73 7.73 0 0 1 -3-.08c.67.08-.11 0-.21 0l-1.66-.23c-.55-.06-1.09-.12-1.64-.14a12 12 0 0 0 -4.22.5 11.71 11.71 0 0 0 -7.68 13.45 4.53 4.53 0 0 0 5.54 3.15 4.63 4.63 0 0 0 3.14-5.54z" fill="#a53d43"/><path d="m378.74 342.72a106.72 106.72 0 0 0 -22.15 36.86 102.26 102.26 0 0 0 -3.32 11.64 3.07 3.07 0 0 0 2.09 3.69 3 3 0 0 0 3.69-2.1 100.09 100.09 0 0 1 23.95-45.81 3 3 0 0 0 -4.24-4.24z" fill="#3a569b"/><path d="m339.9 358.83c.35.73 0-.17.15.29l.28.79c.2.61.37 1.22.52 1.84l.21 1c0 .16.14 1.12.05.27.07.64.13 1.28.16 1.93a56.49 56.49 0 0 1 -.3 8.12c-.13 1.45-.28 2.9-.46 4.34 0 .32-.08.64-.13 1 .09-.64-.05.37-.07.48q-.15 1.08-.33 2.16c-.49 3-1.09 6.05-1.79 9a4.5 4.5 0 1 0 8.68 2.39 141.77 141.77 0 0 0 3.13-19.81c.54-6.29.42-12.55-2.35-18.35a4.53 4.53 0 0 0 -6.15-1.61 4.62 4.62 0 0 0 -1.62 6.16z" fill="#2c2c38"/><path d="m314.56 367.14a88.69 88.69 0 0 0 -28 57.55 143.66 143.66 0 0 0 -.54 15.8 9.05 9.05 0 0 0 1 4.84 9.36 9.36 0 0 0 4 3l23.98 11.59a21 21 0 0 1 5.9 3.74c2.23 2.26 3.3 5.38 4.37 8.36a205.89 205.89 0 0 0 11.73 26.66c1 2 2.19 4 4 5.28a14.27 14.27 0 0 0 5.44 1.84l21.66 4.2a6.54 6.54 0 0 0 3.87 0 6.43 6.43 0 0 0 2.73-3.2c15.06-28.48 29.58-57.9 34.92-89.67.06-.42.13-.83.19-1.25a131.91 131.91 0 0 1 -22.13-8 500 500 0 0 1 -73.12-40.74z" fill="#e5a54a"/><path d="m313.5 366.08a90.08 90.08 0 0 0 -26.58 46.43 97.83 97.83 0 0 0 -2 14.15q-.31 4.18-.39 8.39a50.2 50.2 0 0 0 .19 7.95 7.57 7.57 0 0 0 3.72 5.59 77.52 77.52 0 0 0 7 3.49l15.26 7.42c2.29 1.11 4.67 2.12 6.84 3.45a11.77 11.77 0 0 1 4.51 5 73.48 73.48 0 0 1 2.66 6.88c.93 2.5 1.9 5 2.93 7.43q3.11 7.46 6.76 14.65a35.69 35.69 0 0 0 3.6 6.19 10.52 10.52 0 0 0 5.64 3.59c2.6.72 5.32 1.1 8 1.62l8.18 1.58c2.78.55 5.57 1.14 8.37 1.63 2.33.41 4.6.3 6.27-1.58 1.53-1.72 2.45-4.07 3.51-6.08 1.21-2.31 2.41-4.61 3.61-6.93q3.63-7.05 7.09-14.19c9.08-18.84 17-38.42 21.26-59 .52-2.5 1-5 1.38-7.54a1.53 1.53 0 0 0 -1.05-1.84 125.09 125.09 0 0 1 -20-7.11q-9.44-4.14-18.66-8.74c-12.43-6.19-24.57-12.95-36.43-20.16q-10-6.07-19.75-12.56c-1.62-1.07-3.12 1.53-1.52 2.59 23.27 15.42 47.59 29.36 73.12 40.7a135.35 135.35 0 0 0 22.5 8.17l-1.05-1.85c-3.12 19.88-10 39-18.35 57.27-4.18 9.2-8.73 18.24-13.41 27.21-1.14 2.19-2.26 4.4-3.46 6.56a4.36 4.36 0 0 1 -1.8 2.1c-1.16.51-2.63 0-3.81-.21l-15.88-3.09c-2.47-.48-5-.83-7.44-1.53a8.28 8.28 0 0 1 -5-4.1 128.62 128.62 0 0 1 -6.72-13.57q-3.19-7.12-5.82-14.47c-1.51-4.21-3.12-8.2-7-10.81a50.42 50.42 0 0 0 -6.43-3.37l-7.35-3.49c-4.83-2.35-9.69-4.67-14.51-7.06-2.11-1-3.64-2.17-3.9-4.66a62.7 62.7 0 0 1 -.07-8.11 116.08 116.08 0 0 1 1.21-15 87.74 87.74 0 0 1 22.41-46.42c1.44-1.53 2.94-3 4.48-4.43s-.71-3.45-2.12-2.14z" fill="#e5a54a"/><path d="m381.19 451a23.4 23.4 0 0 0 .43 13.46 56.9 56.9 0 0 0 5.89 12.29c.42.7.85 1.4 1.31 2.08 2.84-6 5.55-12.09 8-18.23z" fill="#d6903c"/><path d="m379.74 450.62c-2.9 10.17 2.23 20.69 7.79 29a1.52 1.52 0 0 0 2.59 0q4.33-9.19 8.18-18.59a1.51 1.51 0 0 0 -.69-1.69l-15.61-9.62c-1.65-1-3.16 1.59-1.52 2.59l15.66 9.61-.69-1.7c-2.44 6-5.09 12-7.87 17.87h2.59c-5.09-7.59-10.16-17.31-7.48-26.67a1.51 1.51 0 0 0 -2.95-.8z" fill="#d6903c"/><path d="m470.78 329.88c.33-19.93-8.5-37.35-25.75-47.32a70 70 0 0 0 -8.32-4 84 84 0 0 0 -26.9-6.11 501 501 0 0 0 21.51 80.87 131.57 131.57 0 0 0 9.6 21.5c15.36-10.82 29.55-26.26 29.86-44.94z" fill="#e5a54a"/><path d="m472.28 329.88c.15-11.42-2.66-22.91-9.07-32.45-6.93-10.31-17.21-17.12-28.77-21.43a86.44 86.44 0 0 0 -24.63-5.12 1.52 1.52 0 0 0 -1.44 1.9c5.12 27.75 12.07 55.23 21.82 81.74a132.19 132.19 0 0 0 9.44 21 1.52 1.52 0 0 0 2.05.54c12.1-8.53 23.65-19.66 28.47-34a40.89 40.89 0 0 0 2.13-12.2c0-1.93-3-1.93-3 0-.31 14.4-9.14 26.66-19.48 36a101.32 101.32 0 0 1 -9.64 7.64l2.06.54a120.78 120.78 0 0 1 -8.49-18.54c-2.46-6.54-4.71-13.16-6.83-19.81-4.22-13.31-7.81-26.82-10.89-40.43q-2.61-11.56-4.75-23.23l-1.45 1.9c13.43.84 27.42 4.73 38.53 12.53a48.78 48.78 0 0 1 18.4 25.25 58 58 0 0 1 2.54 18.18c-.03 1.92 2.97 1.92 3-.01z" fill="#e5a54a"/><g fill="#d6903c"><path d="m344.59 457.73a24 24 0 0 0 -2-6.35c-2.32-4.34-7.08-6.88-11.87-8s-9.76-1.15-14.64-1.79a43.39 43.39 0 0 1 -19.64-7.38c-5-3.58-9.17-11.09-6.11-28.52a90.77 90.77 0 0 0 -3.76 19 143.66 143.66 0 0 0 -.54 15.8 9.05 9.05 0 0 0 1 4.84 9.36 9.36 0 0 0 4 3l23.97 11.59a21 21 0 0 1 5.9 3.74c2.23 2.26 3.3 5.38 4.37 8.36a205.89 205.89 0 0 0 11.73 26.66 14.06 14.06 0 0 0 3.93 5.19q3.21-7.23 6.44-14.47a16.39 16.39 0 0 0 1.28-13.4q-2.04-9.13-4.06-18.27z"/><path d="m346 457.33c-.74-3.33-1.64-6.52-3.88-9.18a18.54 18.54 0 0 0 -7.07-4.93c-6.59-2.76-13.86-2.22-20.77-3.43-6.14-1.07-12.7-3.33-17.52-7.18a15.26 15.26 0 0 1 -5-7.76c-1.76-6-1.13-12.67-.07-18.78a1.5 1.5 0 0 0 -2.89-.8 101.77 101.77 0 0 0 -4.22 25.34q-.16 3.33-.17 6.67a33.9 33.9 0 0 0 .27 6.13c.73 4.15 4.4 5.62 7.79 7.27 7.84 3.81 15.82 7.41 23.54 11.46a13.68 13.68 0 0 1 4.4 3.32 17.19 17.19 0 0 1 2.5 4.71c1.46 3.82 2.81 7.68 4.37 11.46q2.67 6.48 5.76 12.78c1.86 3.76 3.57 8.17 7 10.76a1.5 1.5 0 0 0 2.05-.54q2.63-5.88 5.23-11.76c1.55-3.46 3.47-7 3.54-10.87.06-4.07-1.3-8.23-2.17-12.17q-1.37-6.25-2.75-12.5c-.41-1.88-3.31-1.08-2.89.8q1.28 5.78 2.54 11.54c.42 1.92.85 3.84 1.27 5.76a31.47 31.47 0 0 1 1 6.08c.08 3.74-1.94 7.21-3.42 10.53l-4.93 11.07 2-.53a11.82 11.82 0 0 1 -3-4c-.95-1.74-1.84-3.51-2.72-5.29q-2.71-5.47-5.09-11.1c-1.58-3.73-3-7.52-4.4-11.33-1.15-3.21-2.45-6.54-5.08-8.84-2.87-2.5-6.64-3.92-10-5.56l-11.5-5.59-5.75-2.8a23.28 23.28 0 0 1 -4.94-2.66c-1.49-1.25-1.57-3.13-1.61-4.94-.05-2.14 0-4.28 0-6.42a102.44 102.44 0 0 1 4.24-28l-2.89-.8c-1.57 9.07-2.55 20.65 4.24 28 3.52 3.8 8.86 6.17 13.69 7.75a52.93 52.93 0 0 0 10.2 2.17c3.81.44 7.66.53 11.44 1.22a21.32 21.32 0 0 1 9.74 4c3.08 2.51 4.14 5.93 5 9.69.48 1.92 3.38 1.14 2.92-.75z"/><path d="m351.22 412.7a3.15 3.15 0 0 0 -.29-.22c-2.87-2.07-6.31-3.15-9.64-1.48a11.18 11.18 0 0 0 -5.23 6.65 22.33 22.33 0 0 0 .18 14.79 20.34 20.34 0 0 0 5.65 8l.58.49a14.86 14.86 0 0 0 6.86 3.23 9.24 9.24 0 0 0 7.22-1.76 10.76 10.76 0 0 0 3.26-5.21 20.58 20.58 0 0 0 -1.23-14.65 25.14 25.14 0 0 0 -7.36-9.84z"/><path d="m352 411.4c-2.72-2-6.1-3.29-9.48-2.44a11.09 11.09 0 0 0 -6.94 6 23 23 0 0 0 .23 20.11c2.91 5.66 9.09 11.15 15.84 10.68a10.14 10.14 0 0 0 7.79-4.31 17.28 17.28 0 0 0 2.72-9.93 26.82 26.82 0 0 0 -10.16-20.11 1.51 1.51 0 0 0 -2.05.54 1.53 1.53 0 0 0 .54 2.05 24.28 24.28 0 0 1 8.39 14.42c.88 4.89-.06 12.51-5.74 14.07-5.31 1.46-10.67-2.64-13.48-6.8a20 20 0 0 1 -2.5-16.4c.72-2.68 2.06-5.41 4.57-6.81 3-1.67 6.21-.36 8.76 1.52 1.51 1.15 3.03-1.46 1.51-2.59z"/></g><path d="m353.36 414.33a2.48 2.48 0 0 0 -.26-.19c-2.49-1.8-5.48-2.74-8.38-1.29a9.72 9.72 0 0 0 -4.55 5.78 19.39 19.39 0 0 0 .16 12.87 17.69 17.69 0 0 0 4.91 6.95q.25.23.51.42a12.82 12.82 0 0 0 6 2.82 8.1 8.1 0 0 0 6.29-1.53 9.42 9.42 0 0 0 2.83-4.54 17.9 17.9 0 0 0 -1.07-12.74 22 22 0 0 0 -6.44-8.55z" fill="#ffbc64"/><path d="m354.12 413c-2.44-1.8-5.52-2.94-8.55-2.11a9.92 9.92 0 0 0 -6 5.2 20.2 20.2 0 0 0 .1 17.63c2.48 4.95 7.75 9.66 13.58 9.54 6.48-.13 9.6-6.12 9.77-12a23.25 23.25 0 0 0 -8.63-18.06 1.55 1.55 0 0 0 -2.12 0 1.51 1.51 0 0 0 0 2.12 21.18 21.18 0 0 1 7.39 12c.87 4 .44 10.68-4.12 12.43s-9.25-1.69-11.79-5.16a17 17 0 0 1 -2.58-14.19c.58-2.35 1.63-4.78 3.78-6.08 2.6-1.57 5.38-.45 7.62 1.2 1.59 1.25 3.09-1.36 1.55-2.52z" fill="#ffbc64"/><path d="m409.48 439.28a6.28 6.28 0 0 0 -.88-1.25c-1.72-1.88-4.37-2.66-6.63-3.67-2.45-1.08-5.07-2.19-7.72-1.77-3.87.6-7 4.09-9.13 7.17a25.8 25.8 0 0 0 -4.12 11.13c-.48 3.26-1.06 7.09 1.15 9.88 1.41 1.78 3.65 2.62 5.78 3.39l6.34 2.29a5.34 5.34 0 0 0 3.34.44c6.41-2 9.6-9.34 11.48-15.22 1.14-3.55 2.33-8.85.39-12.39z" fill="#d6d6d6"/><path d="m410.78 438.52c-1.91-3.27-5.59-4.41-8.88-5.82-3.7-1.59-7.43-2.44-11.17-.47-3 1.61-5.42 4.47-7.26 7.32a27.78 27.78 0 0 0 -3.94 11.12c-.51 3.43-1 7.31 1 10.38s6.08 4.22 9.5 5.46a29.9 29.9 0 0 0 5.94 1.94 7.65 7.65 0 0 0 4.84-1.35 18.27 18.27 0 0 0 6.34-6.92 42.37 42.37 0 0 0 3.94-10c1-3.79 1.56-8.07-.3-11.7-.88-1.71-3.47-.2-2.59 1.52 1.38 2.68.83 6 .13 8.85a43 43 0 0 1 -2.52 7.31 21.61 21.61 0 0 1 -4.23 6.51 11.43 11.43 0 0 1 -2.86 2.12 5 5 0 0 1 -1.93.69 6.91 6.91 0 0 1 -2.57-.68l-5-1.8a22.7 22.7 0 0 1 -4.36-1.86c-2.74-1.71-3-4.73-2.71-7.67.61-6.37 2.81-12.56 7.65-16.95a9.83 9.83 0 0 1 4.12-2.38 9.29 9.29 0 0 1 5.56.75c1.59.61 3.17 1.29 4.71 2a8.13 8.13 0 0 1 4 3.12 1.5 1.5 0 0 0 2.59-1.49z" fill="#d6d6d6"/><path d="m415.61 454.43c1.34-4.19 2.75-10.44.47-14.61a7.57 7.57 0 0 0 -1.05-1.47 10 10 0 0 0 -2.64-2 12.13 12.13 0 0 0 -6.07-.85c-4.57.71-8.26 4.82-10.76 8.46a30.21 30.21 0 0 0 -4.86 13.11c-.57 3.85-1.26 8.37 1.35 11.66a8.24 8.24 0 0 0 1.64 1.54l4.44 1.6a6.35 6.35 0 0 0 3.95.52c7.56-2.39 11.31-11.04 13.53-17.96z" fill="#c1c1c1"/><path d="m417.06 454.83c2-6.47 3.45-15.09-3.19-19.37a11.88 11.88 0 0 0 -11.14-.38c-3.29 1.58-5.84 4.45-7.94 7.36a30.15 30.15 0 0 0 -4.85 10.62 33.37 33.37 0 0 0 -1.19 11 10.78 10.78 0 0 0 1.67 5 9.2 9.2 0 0 0 1.62 1.85 8.44 8.44 0 0 0 2.81 1.41c1.94.7 4 1.75 6.14 1.76a9.76 9.76 0 0 0 4.72-1.63c6.2-3.69 9.23-11 11.35-17.56.59-1.85-2.31-2.63-2.9-.8-1.57 4.88-3.58 10-7.3 13.69-1.83 1.8-4.57 3.83-7.25 3-.81-.24-1.61-.56-2.41-.85a17.68 17.68 0 0 1 -2.67-1 6 6 0 0 1 -2.53-3.68c-.75-2.79-.19-5.89.28-8.69a30.23 30.23 0 0 1 3.1-9.49c2.68-4.94 7.7-11.25 14-10.06 8.35 1.57 6.64 11 4.74 17-.54 1.86 2.35 2.65 2.94.82z" fill="#c1c1c1"/><path d="m347.26 426.54c.13-.41.28-.81.44-1.21l-.15.36a13.07 13.07 0 0 1 1.59-2.73l-.24.31.18-.23a1.61 1.61 0 0 0 .44-1.06 1.5 1.5 0 0 0 -1.5-1.5 1.48 1.48 0 0 0 -1.06.44 14.57 14.57 0 0 0 -2.59 4.83 1.5 1.5 0 1 0 2.89.79z" fill="#e5a54a"/><path d="m351.54 432.26c.19-.6.4-1.19.65-1.78l-.15.36a20.79 20.79 0 0 1 1.44-2.77 1.5 1.5 0 0 0 -.54-2.05 1.53 1.53 0 0 0 -2.05.54 21.08 21.08 0 0 0 -2.24 4.9 1.51 1.51 0 0 0 1 1.85 1.54 1.54 0 0 0 1.85-1.05z" fill="#e5a54a"/><path d="m307.72 441.61a106.13 106.13 0 0 1 19-51.16c2.86-4 6.18-7.82 10.62-10.14 1.71-.9.2-3.49-1.51-2.59a31.62 31.62 0 0 0 -10.12 9.07 97.13 97.13 0 0 0 -7.8 12 109 109 0 0 0 -13.22 42.78c-.18 1.92 2.82 1.91 3 0z" fill="#d6903c"/><path d="m412.29 444.09c-3.52 3.23-9.39 16.58-9.79 23.16.11-1.41.27-3 1.28-4a9.36 9.36 0 0 1 1.83-1.21c2.52-1.56 4.06-4.32 5-7 1-2.9 2-6.55.68-9.49a14.79 14.79 0 0 0 -1.6 2.38c-2.39 4.1-4.83 8.32-5.58 13" fill="#2c2c38"/><path d="m411.23 443c-3 2.8-4.79 7.1-6.36 10.77-1.81 4.25-3.55 8.8-3.87 13.45-.13 1.93 2.85 1.91 3 0a4.9 4.9 0 0 1 .74-2.78c.65-.78 1.84-1.19 2.64-1.82a13.65 13.65 0 0 0 3.75-4.9c1.77-3.71 3.3-8.6 1.64-12.58-.39-.93-1.7-1.63-2.51-.67a40.11 40.11 0 0 0 -4.61 7.68 29.91 29.91 0 0 0 -3 8.38c-.32 1.88 2.57 2.7 2.89.79a27.37 27.37 0 0 1 2.66-7.65 36.68 36.68 0 0 1 4.14-7.07l-2.5-.67a9.57 9.57 0 0 1 .09 6.21 20.53 20.53 0 0 1 -2.27 5.62 10.42 10.42 0 0 1 -1.66 2.24 23.44 23.44 0 0 1 -2.51 1.69c-1.88 1.34-2.27 3.44-2.44 5.61h3c.29-4.18 1.95-8.41 3.59-12.22a56.13 56.13 0 0 1 3-6.07 16.4 16.4 0 0 1 2.76-3.81c1.41-1.32-.72-3.44-2.13-2.12z" fill="#2c2c38"/><g fill="#ef6e4b"><path d="m356.21 344a1.5 1.5 0 0 0 0-3 1.5 1.5 0 0 0 0 3z"/><path d="m363.49 338.32a1.5 1.5 0 0 0 0-3 1.5 1.5 0 0 0 0 3z"/><path d="m379.44 371.78a1.5 1.5 0 0 0 0-3 1.5 1.5 0 0 0 0 3z"/><path d="m385.34 362.59a1.5 1.5 0 0 0 0-3 1.5 1.5 0 0 0 0 3z"/><path d="m386.72 370.91a1.5 1.5 0 0 0 0-3 1.5 1.5 0 0 0 0 3z"/></g><g fill="#ffbc64"><path d="m337.32 347.34a1.5 1.5 0 0 0 0-3 1.5 1.5 0 0 0 0 3z"/><path d="m341 342.48a1.5 1.5 0 0 0 0-3 1.5 1.5 0 0 0 0 3z"/><path d="m351.16 305.79a75.69 75.69 0 0 1 -.45 10 1.51 1.51 0 0 0 2.26 1.29c1-.65 2.07-1.34 3.07-2.07l-2.26-1.29a44.86 44.86 0 0 1 .39 6.13 1.5 1.5 0 0 0 3 0 44.86 44.86 0 0 0 -.39-6.13 1.58 1.58 0 0 0 -.74-1.3 1.46 1.46 0 0 0 -1.51 0c-1 .73-2 1.42-3.07 2.07l2.25 1.3a75.69 75.69 0 0 0 .45-10c-.05-1.93-3.05-1.93-3 0z"/><path d="m382.14 299.89a32.75 32.75 0 0 1 .17 3.28c0 1-.16 2-.12 3a2.87 2.87 0 0 0 1.49 2.65 2.3 2.3 0 0 0 3.05-.83h-2.59a3.9 3.9 0 0 1 .23 2.07 1.55 1.55 0 0 0 1.05 1.84 1.5 1.5 0 0 0 1.84-1.05 7.29 7.29 0 0 0 -.53-4.37 1.51 1.51 0 0 0 -2.59 0 .9.9 0 0 1 .65-.38c.06 0 .38.13.23.05s.13.12.15.12.05.08 0 0a18.36 18.36 0 0 1 .09-2 31 31 0 0 0 -.14-4.41 1.54 1.54 0 0 0 -1.5-1.5 1.52 1.52 0 0 0 -1.5 1.5z"/><path d="m385.51 337.63a1.5 1.5 0 0 0 0-3 1.5 1.5 0 0 0 0 3z"/><path d="m391.92 333.42h-.17a1.14 1.14 0 0 0 -.58.12 1.37 1.37 0 0 0 -.48.31 1.11 1.11 0 0 0 -.31.49 1.15 1.15 0 0 0 -.13.58l.05.39a1.56 1.56 0 0 0 .39.67l.3.23a1.58 1.58 0 0 0 .76.21h.17a1.27 1.27 0 0 0 .58-.13 1.21 1.21 0 0 0 .5-.29 1.32 1.32 0 0 0 .31-.49 1.13 1.13 0 0 0 .12-.57l-.05-.4a1.54 1.54 0 0 0 -.38-.67l-.31-.23a1.42 1.42 0 0 0 -.76-.2z"/><path d="m390.88 343.52a1.5 1.5 0 0 0 0-3 1.5 1.5 0 0 0 0 3z"/><path d="m408.74 371.09a1.5 1.5 0 0 0 0-3 1.5 1.5 0 0 0 0 3z"/><path d="m411.69 384.61a1.5 1.5 0 0 0 0-3 1.5 1.5 0 0 0 0 3z"/><path d="m308.18 322.69 7.2 4.3a1.5 1.5 0 1 0 1.51-2.59l-7.19-4.3a1.5 1.5 0 1 0 -1.52 2.59z"/><path d="m318 307.94 2.86 6.5a1.51 1.51 0 0 0 2.06.53 1.55 1.55 0 0 0 .53-2.05l-2.86-6.5a1.5 1.5 0 0 0 -2.05-.54 1.56 1.56 0 0 0 -.54 2.06z"/><path d="m323.17 321 .26.26a1.08 1.08 0 0 0 .48.31 1.36 1.36 0 0 0 1.16 0 1.14 1.14 0 0 0 .48-.31l.23-.3a1.48 1.48 0 0 0 .21-.76l-.05-.4a1.59 1.59 0 0 0 -.39-.66l-.26-.26a1.14 1.14 0 0 0 -.48-.31 1.36 1.36 0 0 0 -1.16 0 1.08 1.08 0 0 0 -.48.31l-.24.3a1.57 1.57 0 0 0 -.2.76v.4a1.49 1.49 0 0 0 .39.66z"/><path d="m423.56 368.23a1.5 1.5 0 0 0 0-3 1.5 1.5 0 0 0 0 3z"/><path d="m413.42 405.15a1.5 1.5 0 0 0 0-3 1.5 1.5 0 0 0 0 3z"/><path d="m422.78 400.73a1.5 1.5 0 0 0 0-3 1.5 1.5 0 0 0 0 3z"/></g><path d="m439.74 286.43a30.42 30.42 0 0 1 9.9-.88 52.81 52.81 0 0 0 -4.61-3 70 70 0 0 0 -8.32-4 84 84 0 0 0 -26.9-6.11 501 501 0 0 0 21.51 80.87 131.57 131.57 0 0 0 9.6 21.5c.55-.38 1.09-.77 1.63-1.16a26.67 26.67 0 0 0 -.64-4c-1.07-4.59-3-9-3.72-13.63s0-9.92 3.42-13.15a6.11 6.11 0 0 0 1.55-1.74 4.7 4.7 0 0 0 -.2-3.33l-10.53-33.86c-1-3.15-2-6.51-1.13-9.71 1.03-3.88 4.61-6.64 8.44-7.8z" fill="#d6903c"/><path d="m440.14 287.88a30 30 0 0 1 9.5-.83c1.6.05 1.88-2 .76-2.8-11.66-8.34-26.41-12.45-40.59-13.33a1.52 1.52 0 0 0 -1.44 1.9c5.12 27.75 12.07 55.23 21.82 81.74a132.19 132.19 0 0 0 9.44 21 1.52 1.52 0 0 0 2.05.54 20.69 20.69 0 0 0 1.78-1.29c.66-.6.6-1.24.5-2.07a34.18 34.18 0 0 0 -.93-4.82c-.85-3.17-2-6.23-2.8-9.41a20.6 20.6 0 0 1 -.59-8.48 12.38 12.38 0 0 1 1.18-3.65 14.65 14.65 0 0 1 2.72-3.26c2.4-2.53.87-5.73 0-8.59l-3.29-10.53q-3.18-10.26-6.38-20.51c-1-3.24-2.21-7-.64-10.23a11.19 11.19 0 0 1 6.91-5.41c1.83-.58 1.05-3.48-.8-2.9-5.35 1.69-9.89 5.95-9.86 11.87 0 3.31 1.2 6.5 2.17 9.61q1.59 5.13 3.19 10.26l6.45 20.74a7.49 7.49 0 0 1 .61 2.43c0 .77-.52 1.13-1.06 1.64a12.9 12.9 0 0 0 -2.52 3.17 16.64 16.64 0 0 0 -1.89 7.92c0 7.31 4 13.82 4.62 21l.74-1.3c-.54.39-1.08.78-1.63 1.16l2.06.54a120.78 120.78 0 0 1 -8.49-18.54c-2.46-6.54-4.71-13.16-6.83-19.81-4.22-13.31-7.81-26.82-10.89-40.43q-2.61-11.56-4.75-23.23l-1.45 1.9c13.68.85 27.84 4.88 39.07 12.92l.76-2.79a33 33 0 0 0 -10.3.93 1.51 1.51 0 0 0 .8 2.94z" fill="#d6903c"/><g fill="#ffbc64"><path d="m403.77 420v1.91c0 .34-.05.69-.09 1 0 .14 0 .29-.05.43 0-.29 0 .2 0 .26a24.51 24.51 0 0 1 -.92 3.78 1.5 1.5 0 0 0 1 1.84 1.54 1.54 0 0 0 1.85-1 25.14 25.14 0 0 0 1.25-8.21 1.5 1.5 0 0 0 -3 0z"/><path d="m382 481.82a164.81 164.81 0 0 1 -12.11 23.33c-1 1.64 1.57 3.15 2.59 1.51a169.31 169.31 0 0 0 12.42-24.05 1.52 1.52 0 0 0 -1.05-1.84 1.54 1.54 0 0 0 -1.85 1.05z"/><path d="m464.76 316.1a49 49 0 0 1 -7.84 39.08 46.32 46.32 0 0 1 -7.81 8.5c-1.47 1.26.66 3.37 2.12 2.12a51.89 51.89 0 0 0 17.77-38.24 49.13 49.13 0 0 0 -1.33-12.26c-.45-1.88-3.34-1.09-2.9.8z"/></g><path d="m315.53 336a15.37 15.37 0 0 1 -20.53-16.44 1.49 1.49 0 0 0 -1.1-1.44 9.88 9.88 0 0 1 -6.4-9.74c.1-2-2.77-1.86-3 0-.3 2.43-3.55 3.26-5.54 3.57a45.26 45.26 0 0 1 -10.66-.07 72.23 72.23 0 0 1 -22.3-5.58c-6.4-2.76-13.06-6.46-16.85-12.54a17.88 17.88 0 0 1 -2.86-9.65c0-.89.2-1.73.3-2.6a3.12 3.12 0 0 0 -.72-2.08 11.45 11.45 0 0 1 -1.25-3.53 13.31 13.31 0 0 1 7.2-14.3c1.14-.51.81-2 0-2.59-6.24-4.59-6.45-14.92-.79-20 1.36-1.22-.37-3-1.82-2.36-6.91 3.08-14.39-1.44-19.31-6.14a38.49 38.49 0 0 1 -7-9c-1.78-3.2-3-7.06-1.86-10.68 1-3.34 3.93-6.31 7.63-6.06v-3c-5.8.66-10.32-4.72-11-10.1-.87-6.59 3.42-12.87 7.69-17.44 9.09-9.73 21.12-16.55 33.84-20.31 27.25-8.07 57.29-1.58 81.07 13.27 11.36 7.09 22.75 17.83 23.77 32 .07.87.93 1.82 1.9 1.44a14.84 14.84 0 0 1 16.8 23.58 1.52 1.52 0 0 0 1.06 2.56 12.65 12.65 0 0 1 7.52 21.43l2.51 1.46c.92-2.65 4.28-3.49 6.76-2.85 3.33.87 5.28 4.28 6.17 7.36 2.12 7.4-.09 15.84-5 21.63-1 1.21.31 3.36 1.82 2.35a9.67 9.67 0 0 1 13.09 13.85c-1.06 1.47 1.15 2.85 2.36 1.82a5.72 5.72 0 0 1 8.06 1.13 1.52 1.52 0 0 0 2.59 0c.75-1.26 2.78-.38 3.46.55 1.44 1.94.27 5.08-.37 7.1-.49 1.52 1.44 2.39 2.5 1.46 2.27-2 5.75-1 7.61 1.05 2.16 2.38 2.69 5.93 2.42 9a17.35 17.35 0 0 1 -10.3 14.2c-.68.28-1.39 1-1.05 1.85 2.52 6.08-3.59 13.93-10.2 12.41-.85-.2-2 .42-1.9 1.44.63 5.57-4.05 10-9.05 11.44a1.5 1.5 0 0 0 .79 2.89c6.17-1.77 12-7.46 11.26-14.33l-1.9 1.45c8.6 2 17.35-7.77 13.89-16.1l-1 1.85a20.55 20.55 0 0 0 11.87-13.3c1.62-5.67.76-13.76-5-16.83a8.32 8.32 0 0 0 -9.44.85l2.51 1.46c1.06-3.34 2.15-7.92-.93-10.56-2.24-1.92-6-2.17-7.64.6h2.59a8.76 8.76 0 0 0 -12.77-1.74l2.35 1.82a12.65 12.65 0 0 0 -17.34-17.93l1.81 2.36a27.53 27.53 0 0 0 6.51-20.84c-.73-6.24-4.48-13.77-11.78-13.47a8.18 8.18 0 0 0 -7.65 5.25 1.51 1.51 0 0 0 2.51 1.46 15.65 15.65 0 0 0 -9.64-26.55l1.06 2.56a18.48 18.48 0 0 0 3.68-17.6 17.57 17.57 0 0 0 -13.34-11.75 17.77 17.77 0 0 0 -10.18.73l1.9 1.45c-1-13.58-10.45-24.25-21.09-31.82a112.1 112.1 0 0 0 -41.31-17.76 95 95 0 0 0 -44.47.91c-13.62 3.72-26.53 10.79-36.37 21-4.83 5-9.21 11.41-9.21 18.65 0 6 3.91 12.3 9.76 14.18a10.22 10.22 0 0 0 4.36.42 1.5 1.5 0 0 0 0-3c-4-.27-7.51 2.29-9.41 5.67a14.35 14.35 0 0 0 -.51 12.23 35.72 35.72 0 0 0 7.52 11.37 33 33 0 0 0 10.81 7.97 16.69 16.69 0 0 0 13.68.26l-1.81-2.36c-7.22 6.49-6.31 19.05 1.4 24.72v-2.62c-8.28 3.76-11.5 15.32-6.46 22.85l-.15-1.15a20.21 20.21 0 0 0 3.66 15.76c3.33 4.64 8.1 8 13.14 10.55a75.57 75.57 0 0 0 35.29 8.13c4.66-.08 11-1.14 11.7-6.77h-3a12.9 12.9 0 0 0 8.61 12.63l-1.06-1.44a18.37 18.37 0 0 0 24.38 19.35c1.81-.63 1-3.53-.8-2.9z" fill="#d6d6d6"/><g fill="#fff"><path d="m251 228c-.6-1.53.54-3.46 2.36-2.64a1.52 1.52 0 0 0 2.2-1.69c-.89-4.36-1-9.18 1-13.27a14.33 14.33 0 0 1 8.66-7.35 14.15 14.15 0 0 1 17.62 10.11 1.51 1.51 0 0 0 2.89 0 3.37 3.37 0 0 1 2.34-2.55c1.4-.45 2.43.15 3.53 1a5.88 5.88 0 0 0 4 1.56 3.42 3.42 0 0 0 3.14-2.33c.63-1.83-2.26-2.62-2.89-.8-.33.94-2.86-1.16-3.15-1.36a6.08 6.08 0 0 0 -3.94-1.2 6.46 6.46 0 0 0 -5.88 4.9h2.89a17 17 0 0 0 -32.49-1.78c-1.67 4.42-1.49 9.33-.56 13.89l2.2-1.7a5 5 0 0 0 -5.52.66 4.93 4.93 0 0 0 -1.25 5.37c.7 1.78 3.6 1 2.9-.8z"/><path d="m309.48 213.53a1.5 1.5 0 0 0 0-3 1.5 1.5 0 0 0 0 3z"/><path d="m310.59 203.11a1.5 1.5 0 0 0 0-3 1.5 1.5 0 0 0 0 3z"/><path d="m319.15 207.2a1.5 1.5 0 0 0 0-3 1.5 1.5 0 0 0 0 3z"/><path d="m299.86 283.53a5.23 5.23 0 0 1 6.52-6.46 1.51 1.51 0 0 0 1.69-2.2c-2.89-6.24-1.39-14.1 3-19.24a15.85 15.85 0 0 1 9.69-5.53c3.91-.55 8.42 1.08 9.85 5.06a1.5 1.5 0 0 0 2.94-.4c.53-4.65 6.69-5.88 9.17-2a1.51 1.51 0 0 0 2.59 0c.81-1.44 3.32-1.84 4.38-.4s3.73.05 2.59-1.51c-2.34-3.19-7.54-3.16-9.56.4h2.59a8 8 0 0 0 -14.76 3.56l3-.4a11.15 11.15 0 0 0 -7.66-6.93 16.05 16.05 0 0 0 -11.83 1.9 21.5 21.5 0 0 0 -10.29 16.07 20.13 20.13 0 0 0 1.72 11l1.69-2.2a8.26 8.26 0 0 0 -10.18 10.07 1.5 1.5 0 0 0 2.89-.79z"/><path d="m272.64 278.27a1.5 1.5 0 0 0 0-3 1.5 1.5 0 0 0 0 3z"/><path d="m278.22 264.87a1.5 1.5 0 0 0 0-3 1.5 1.5 0 0 0 0 3z"/><path d="m287.15 275.67a1.5 1.5 0 0 0 0-3 1.5 1.5 0 0 0 0 3z"/><path d="m339.29 298.57c-.19-.35 0 .16 0-.06a2.81 2.81 0 0 1 -.08-.31c0 .21 0 .09 0-.06s0-.27 0-.06c0-.1.05-.21.08-.31s-.17.23 0-.07c0 0 .22-.31.1-.17s.15-.13.15-.13-.08.07 0 0c.27-.18-.18 0 .14-.07l.26-.06c-.29.06 0 0 .08 0s.28 0 .07 0l.33.09c.13 0-.12-.11.07.05s-.13-.15.13.1a1.53 1.53 0 0 0 1.64.31 1.56 1.56 0 0 0 .92-1.38c0-.18 0-.18 0 0 0-.09 0-.19.05-.28s.08-.37.13-.55a7.43 7.43 0 0 1 .32-.94c-.11.27.12-.24.14-.29l.28-.5c.07-.12.15-.24.23-.36s.35-.49.18-.27a7.75 7.75 0 0 1 .66-.74 5 5 0 0 1 .41-.39s.47-.38.25-.22c.27-.19.54-.37.83-.54s.33-.18.51-.26l.25-.12c-.14.06-.12.06 0 0a1.54 1.54 0 0 0 1.05-1.84 1.51 1.51 0 0 0 -1.85-1.05 10.12 10.12 0 0 0 -6.48 8.38l2.56-1.06a3.87 3.87 0 0 0 -6.07 4.7 1.5 1.5 0 0 0 2.59-1.52z"/><path d="m396.49 309.46.37-.37a1.11 1.11 0 0 0 .31-.49 1 1 0 0 0 .13-.57 1.06 1.06 0 0 0 -.13-.58 1 1 0 0 0 -.31-.48l-.3-.24a1.47 1.47 0 0 0 -.76-.2l-.4.05a1.49 1.49 0 0 0 -.66.39l-.37.37a1 1 0 0 0 -.31.48 1.06 1.06 0 0 0 -.13.58 1.08 1.08 0 0 0 .13.58 1.14 1.14 0 0 0 .31.48l.3.23a1.48 1.48 0 0 0 .76.21l.4-.06a1.57 1.57 0 0 0 .66-.38z"/><path d="m404.36 303.2a1.5 1.5 0 0 0 0-3 1.5 1.5 0 0 0 0 3z"/><path d="m404.36 314a1.5 1.5 0 0 0 0-3 1.5 1.5 0 0 0 0 3z"/></g><g fill="#d6d6d6"><path d="m262.21 343a10.24 10.24 0 0 0 -8.24-3.54 13.51 13.51 0 0 0 -8.38 3.57 11.63 11.63 0 0 0 -4.14 8.52c0 3.25 2.2 6.55 5.37 7.3-2.51.42-3.63 3.79-2.51 6.07s3.7 3.49 6.2 3.93c3.63.65 8.1-.47 9.42-3.92a6 6 0 0 0 7.15 3c2.64-1 4-4.72 2.22-6.95a5.59 5.59 0 0 0 5.39-1.7 12 12 0 0 0 2.69-5.22 7.59 7.59 0 0 0 .31-3.83 3.12 3.12 0 0 0 -2.67-2.45 5.22 5.22 0 0 0 0-6.57 7.05 7.05 0 0 0 -6.44-2.29 3.72 3.72 0 0 1 -1.58.08 4.77 4.77 0 0 1 -1.35-.76 4.78 4.78 0 0 0 -6.86 6.15"/><path d="m263.27 342c-5.3-6.19-14.84-4.48-19.84 1.14a12.21 12.21 0 0 0 -3.34 9.91 9 9 0 0 0 6.33 7.31v-2.89a5.51 5.51 0 0 0 -4 5.51c0 3 2.16 5.29 4.73 6.44 4.9 2.19 12 1.45 14.26-4l-2.74.36c1.83 3.25 6.12 5.2 9.62 3.37 3-1.59 4.41-5.94 2.35-8.82l-1.7 2.21c4.4 1.08 7.8-2.28 9.3-6.08.78-2 1.51-4.39.93-6.52a4.7 4.7 0 0 0 -4.11-3.55l1.06 2.56a6.74 6.74 0 0 0 .31-8.25c-1.91-2.64-5.14-3.49-8.24-3.11-.9.11-1.24-.3-2-.72a6.08 6.08 0 0 0 -2.19-.68 6.23 6.23 0 0 0 -6.42 9.06c.78 1.76 3.37.23 2.59-1.52a3.33 3.33 0 0 1 2-4.46c2.23-.68 3.55 1.49 5.69 1.37s3.87-.36 5.53 1.1a3.79 3.79 0 0 1 .64 5.09 1.52 1.52 0 0 0 1.06 2.56c1.28.14 1.38 2 1.25 2.89a13.32 13.32 0 0 1 -1.13 3.75c-.95 2.08-2.91 4.24-5.44 3.61-1.17-.29-2.5 1.08-1.69 2.21a3.25 3.25 0 0 1 -1.28 4.71c-2.08 1-4.49-.48-5.51-2.3a1.52 1.52 0 0 0 -2.74.36c-1.39 3.34-6.29 3.4-9.18 2.48-1.61-.52-3.53-1.64-3.87-3.46a2.68 2.68 0 0 1 1.79-3.25 1.51 1.51 0 0 0 0-2.89 6.06 6.06 0 0 1 -4.24-5.34c-.28-2.8 1.19-5.51 3.11-7.44 4-4.07 11-5.3 15.06-.57 1.26 1.47 3.37-.66 2.12-2.12z"/><path d="m415.81 252.35c-2.18-1.27-4.4-2.69-5.69-4.86s-1.31-5.3.6-7c1.33-1.15 3.22-1.32 5-1.53a1.93 1.93 0 0 0 1.11-.36 2.09 2.09 0 0 0 .53-1.06 14.27 14.27 0 0 1 3.32-6.26 7.06 7.06 0 0 1 6.51-2.11 7.43 7.43 0 0 1 4.54 4 21.93 21.93 0 0 1 1.74 6 1.73 1.73 0 0 1 2.49-.8 4.46 4.46 0 0 1 1.72 2.42 10.85 10.85 0 0 1 .88 3.88 7.16 7.16 0 0 1 -7.61 6.83c1 1 0 2.63-1.07 3.45a10.68 10.68 0 0 1 -10.71 1.09c-1.72-.81-3.33-2.36-3.27-4.25.55.35.21 1.24-.34 1.6a3.19 3.19 0 0 1 -4.1-1.13 7.32 7.32 0 0 1 -1-4.51"/><path d="m416.57 251.05c-2.73-1.59-7-4.35-5.66-8.16.6-1.72 2.42-2.07 4-2.29 2.07-.28 3.25-.65 3.89-2.8 1-3.24 3.19-7.52 7.22-7.24 4.28.29 5.31 5.71 5.94 9 .31 1.58 2.43 1.25 2.89 0-.07.2.07 0 .25.08a1 1 0 0 1 .45.38 5.81 5.81 0 0 1 .93 2 6.34 6.34 0 0 1 .22 4.27 5.75 5.75 0 0 1 -5.81 3.7c-1.42-.11-1.82 1.66-1.06 2.56.41.5-2.06 1.93-2.37 2.07a9.27 9.27 0 0 1 -4 .87c-2.15 0-6.08-1-6.14-3.71l-2.56 1.06-.12-.71a.62.62 0 0 1 -.27.09c-.15 0-.37 0-.54 0a2.09 2.09 0 0 1 -1.28-.89 6 6 0 0 1 -.67-3.57c0-1.94-3-1.94-3 0-.07 3 .78 6.37 4 7.32a4 4 0 0 0 3.88-.81 2.45 2.45 0 0 0 .12-3.53 1.51 1.51 0 0 0 -2.56 1.06c.11 5 6.09 7.06 10.27 6.65a11.81 11.81 0 0 0 6.27-2.42c1.73-1.4 2.61-3.73 1.07-5.58l-1.01 2.55a8.67 8.67 0 0 0 9.11-8.33c0-2.32-.89-5.6-2.72-7.15a3.31 3.31 0 0 0 -5.32 1.25h2.89c-.71-3.72-1.71-7.65-5-9.94-3.12-2.17-7.14-1.34-9.88 1a12.55 12.55 0 0 0 -3.11 4.49 24.86 24.86 0 0 0 -.95 2.62c-.16.54-.08.43-.62.56s-.91.11-1.35.17c-3.61.53-6.47 2.88-6.25 6.78.25 4.4 3.83 7.09 7.33 9.13a1.5 1.5 0 0 0 1.52-2.59z"/><path d="m392.41 205.27a9.69 9.69 0 0 0 -2.62 5.07 6.22 6.22 0 0 0 -.08 3.09 2.74 2.74 0 0 0 2.11 2 1.81 1.81 0 0 0 2.06-1.77 4.22 4.22 0 0 0 4.08 3.61 4.87 4.87 0 0 0 4.49-3.32 5.78 5.78 0 0 0 -1.25-5.56c-.22-.24-.55-.49-.84-.34a.63.63 0 0 0 -.25.67c.19 1.16 1.9 1.49 2.8.74a3.63 3.63 0 0 0 .95-3.23 7.34 7.34 0 0 0 -6.29-6.47c-3.24-.26-6.53 2.63-6.28 5.88"/><path d="m391.35 204.21a10.5 10.5 0 0 0 -2.63 4.39c-.57 1.73-1 3.81-.34 5.57a4.11 4.11 0 0 0 3.78 2.82 3.32 3.32 0 0 0 3.22-3.28h-3a5.76 5.76 0 0 0 3.79 4.79 5.9 5.9 0 0 0 5.8-1.22 6.48 6.48 0 0 0 2.19-5.68c-.21-1.81-1.57-5.49-4-5a2.1 2.1 0 0 0 -1.47 2.75 3 3 0 0 0 2.13 1.94 3.68 3.68 0 0 0 4.43-3.1c.81-4-2.12-8.27-5.88-9.54-4.51-1.51-9.84 2.16-9.6 7 .1 1.92 3.1 1.93 3 0a4.18 4.18 0 0 1 2.27-3.82 4.37 4.37 0 0 1 4.58.21 6.16 6.16 0 0 1 2.67 4c.12.61.24 1.65-.25 2.16-.16.17-.22.09-.43.17.08 0-.25 0-.15-.06a.6.6 0 0 1 -.08.81l-.67.38h.23-.8c.17.05.58.91.7 1.18a4.39 4.39 0 0 1 .33 1.72 3.45 3.45 0 0 1 -1.4 2.78c-1.47 1.09-4.15.62-4.43-1.48a1.56 1.56 0 0 0 -1.5-1.5 1.52 1.52 0 0 0 -1.5 1.5c0 .43-.53.27-.75.09a2.58 2.58 0 0 1 -.53-2.34 8.77 8.77 0 0 1 2.37-5.13c1.4-1.34-.72-3.46-2.12-2.12z"/><path d="m221.55 324c-.35 1.18-.6 2.7.39 3.44a2 2 0 0 0 2.85-1 4.73 4.73 0 0 0 -.1-3.39 7.51 7.51 0 0 0 -2.2-3.55 3.85 3.85 0 0 0 -4-.7 3 3 0 0 0 1.95 5.7"/><path d="m220.11 323.62a5.9 5.9 0 0 0 -.19 3.45 3.07 3.07 0 0 0 3.33 2.13 3.77 3.77 0 0 0 3-2.31 6.13 6.13 0 0 0 -.06-4.16c-.79-2.45-2.37-4.93-5-5.55a4.54 4.54 0 0 0 -5.75 3.7 4.34 4.34 0 0 0 1.4 4 4.75 4.75 0 0 0 4.12 1.09 1.52 1.52 0 0 0 1.05-1.85 1.55 1.55 0 0 0 -1.85-1.05c-.37.08.23 0 0 0h-.29-.23c.33 0 .13 0 .05 0l-.28-.08c-.09 0-.31-.14 0 0a3.6 3.6 0 0 1 -.5-.29c.26.17.05.05 0 0s-.13-.14-.2-.2-.14-.22 0 0l-.12-.19s-.2-.34-.09-.14 0-.12 0-.14a2 2 0 0 1 -.06-.23c-.08-.35 0 .3 0-.06v-.23c0-.36-.06.21 0 0s.08-.34.13-.5 0 0 0 0l.14-.26.15-.24c-.13.21 0 .05.07-.06l.16-.16c.25-.25-.17.08 0 0a2.07 2.07 0 0 0 .25-.15c.07 0 .22-.06 0 0l.25-.07s.42-.08.19-.05.18 0 .19 0a2.54 2.54 0 0 1 .39 0c-.06 0-.29-.06 0 0l.26.06c.11 0 .21.08.32.1s-.28-.15.07 0a4.31 4.31 0 0 1 .47.26s.34.24.17.11l.21.19c.15.14.29.29.43.44.28.31-.08-.13 0 .07l.2.28a12.74 12.74 0 0 1 .62 1.15c.11.23-.12-.32 0 .09l.1.25c.07.2.14.4.2.6s.12.42.17.64l.06.28c.07.34 0-.13 0 .18a5.77 5.77 0 0 1 0 .72c0-.35-.13.4-.08.25s-.08.15-.08.15-.17.18 0 0l-.16.16c-.19.24.2-.09-.05.06a1.16 1.16 0 0 0 -.24.14h.1l-.16.05c-.29.11 0 0 0 0h-.11.08s-.21-.07-.2-.06c.17.08.21.1.11 0s-.06 0 .08.08c0-.06-.11-.11-.16-.16.29.29 0 0 0-.05l.07.16a.83.83 0 0 1 -.06-.21c-.1-.28 0 .28 0-.05a5.81 5.81 0 0 1 0-.59c0-.28 0 0 0 0 0-.12 0-.24.07-.36s.11-.46.18-.69a1.5 1.5 0 1 0 -2.89-.8z"/></g><path d="m368.06 566.51c-3.06-17.73-12.57-31.53-29.25-38.9-11.8-5.2-24.55-6.18-36.91-9-12.9-2.87-25.9-5.91-39.22-5.61-15.89.36-32.38 5.82-42.6 18-5.52 6.58-8.9 14.69-11.71 22.81-11.29 32.69-13.71 70.72-13.49 107.94a75.86 75.86 0 0 0 67.31 74.95 253.44 253.44 0 0 0 81.72-3.85c9.56-2.05 20.34-5.82 23.66-15 1.14-3.17 1.21-6.6 1.27-10 .34-21.86.67-43.71.65-65.57s1.06-44.11-.29-65.85a90.66 90.66 0 0 0 -1.14-9.92z" fill="#e5a54a"/><path d="m369.51 566.11a56.17 56.17 0 0 0 -11-25.46 52.26 52.26 0 0 0 -23.59-16.19 117.28 117.28 0 0 0 -18.21-4.5c-6.06-1.12-12.1-2.25-18.12-3.6-12.34-2.77-24.93-5.39-37.64-4.8-10.38.48-20.87 3-29.88 8.33a46.57 46.57 0 0 0 -11.78 9.74 57.91 57.91 0 0 0 -9 15 178.86 178.86 0 0 0 -10.18 33.85 300 300 0 0 0 -5.11 36.33c-1.06 12.49-1.5 25-1.59 37.57a156.49 156.49 0 0 0 .36 16.35 77.39 77.39 0 0 0 58.09 67.59 102.86 102.86 0 0 0 15.41 2.39q9.75.93 19.54 1.1a255.28 255.28 0 0 0 38.49-2.23c6.44-.87 12.85-2 19.21-3.34a56 56 0 0 0 13.45-4.47 22.73 22.73 0 0 0 9.82-8.77c2.93-5.19 2.56-11.36 2.65-17.12q.32-20.11.51-40.23c.1-13.12 0-26.25.24-39.37s.43-26.41 0-39.6a140.71 140.71 0 0 0 -1.59-18.57c-.33-1.9-3.22-1.09-2.9.8a140 140 0 0 1 1.53 18.74c.21 6.43.26 12.86.23 19.29-.05 12.78-.39 25.56-.38 38.35s-.11 25.83-.28 38.74q-.12 9.69-.27 19.37c-.05 3.15 0 6.3-.18 9.45a19.41 19.41 0 0 1 -1.79 8c-4.12 8.08-14.25 10.84-22.43 12.58a246.81 246.81 0 0 1 -37.41 5 255.22 255.22 0 0 1 -37.91-.69c-9.55-.89-18.81-2.69-27.59-6.68a75.15 75.15 0 0 1 -36.36-35.42 73.57 73.57 0 0 1 -7.06-25.27 160.12 160.12 0 0 1 -.32-16.25q.06-9.14.41-18.26c.95-23.74 3.5-47.64 10.12-70.53 3.1-10.74 6.74-22.21 14-31 6.43-7.83 15.55-12.87 25.24-15.52 11-3 22.41-2.85 33.58-1.17 6.15.93 12.24 2.25 18.31 3.61 5.87 1.32 11.76 2.43 17.67 3.51 10.91 2 21.9 4.56 31.14 11a46.25 46.25 0 0 1 15.99 20.24 60.34 60.34 0 0 1 3.68 12.92c.39 1.89 3.23 1.08 2.9-.81z" fill="#e5a54a"/><path d="m194.92 664c1.52 43.56 41.45 75.35 84.58 69q8-1.17 15.95-2.87c9.56-2 20.34-5.81 23.66-15 1.14-3.16 1.21-6.59 1.26-10 .34-21.85.68-43.7.65-65.56s1.07-44.11-.28-65.85a95.84 95.84 0 0 0 -1.14-9.93c-3.07-17.74-12.57-31.54-29.26-38.9-11.79-5.2-24.54-6.18-36.9-9h-.05a21 21 0 0 0 -11.36.61 48.82 48.82 0 0 0 -21.95 14.5c-5.52 6.58-8.9 14.69-11.71 22.81-11.29 32.69-13.71 70.72-13.49 107.94 0 .73.02 1.47.04 2.25z" fill="#d6903c"/><path d="m193.42 664a73.42 73.42 0 0 0 16.5 43.71 75.95 75.95 0 0 0 62.23 27.54 116.51 116.51 0 0 0 14.05-1.77 142.09 142.09 0 0 0 14.88-3.17c7.48-2.14 15.64-5.91 18.95-13.46 2.17-5 1.83-10.58 1.91-15.88q.13-8.81.26-17.63c.31-23.18.28-46.37.6-69.55.15-11.48.24-23-.27-34.44-.43-9.7-1.34-19.43-5-28.5a49.64 49.64 0 0 0 -13.66-19.24c-7.15-6.09-15.81-9.77-24.86-12.05-5.25-1.32-10.6-2.23-15.92-3.2-2.63-.48-5.26-1-7.87-1.53a28.45 28.45 0 0 0 -7.74-.83c-4.91.32-9.67 2.36-14 4.6a48.93 48.93 0 0 0 -11.4 8.11c-7.42 7.15-11.65 16.71-15 26.3a210.27 210.27 0 0 0 -7.9 30.13c-4 21.35-5.43 43.12-5.74 64.82-.07 5.34-.18 10.7 0 16 .07 1.92 3.07 1.93 3 0-.33-10.63 0-21.34.46-32s1.26-21 2.57-31.43a255.56 255.56 0 0 1 5.63-30.42c2.41-9.57 5.28-19.33 9.71-28.18a45.91 45.91 0 0 1 19.11-20.25c4.17-2.29 9-4.51 13.77-4.77a28.29 28.29 0 0 1 7.38.88c2.54.53 5.09 1 7.65 1.46 10.05 1.82 20.34 3.52 29.55 8.18a46.37 46.37 0 0 1 17.4 15 54.61 54.61 0 0 1 8.5 21.76 127.46 127.46 0 0 1 1.44 16.56c.22 5.52.31 11.05.33 16.57 0 11.17-.25 22.34-.35 33.51s-.05 22.39-.15 33.58-.27 22.51-.44 33.77c0 2.78-.07 5.56-.13 8.33a26.64 26.64 0 0 1 -1 7.75 16.81 16.81 0 0 1 -7.06 8.6c-7.34 4.77-16.64 6.15-25.1 7.62s-16.9 2.29-25.5 1.32a73.18 73.18 0 0 1 -40.22-18 69.72 69.72 0 0 1 -23.57-49.8c-.07-2-3.07-2-3 0z" fill="#d6903c"/><path d="m319.11 715.12a20 20 0 0 0 1-4.6c-20.53-18.83-41-38.24-55.09-62.21-11.2-19.06-18-40.31-25.95-60.91-2.07-5.34-4.48-10.95-9.22-14.15-4.31-2.91-9.81-3.31-15-3.13a84.78 84.78 0 0 0 -11.57 1.17c-4.74 19.39-7 40.13-7.9 61.13 2.26 2 4 5.2 5.16 8.07 11.57 28.38 30 56.1 58.17 68.12 13.59 5.79 28.5 7.53 43.18 9.21 5.41.62 11.41 1 16.35-.74a15.79 15.79 0 0 0 .87-1.96z" fill="#c68238"/><path d="m320.55 715.52a14 14 0 0 0 1.06-5c-.06-.85-.66-1.27-1.25-1.81l-2.1-1.93q-3.57-3.28-7.11-6.6c-4.81-4.53-9.56-9.12-14.18-13.85a220.92 220.92 0 0 1 -25.27-30.27c-7.55-11.14-13.42-23.24-18.47-35.69-2.58-6.37-5-12.8-7.38-19.24-2.29-6.15-4.43-12.41-7.09-18.41s-6.69-11.2-13.29-13.1a33.79 33.79 0 0 0 -10.22-1 88.77 88.77 0 0 0 -12.38 1.25 1.47 1.47 0 0 0 -1.05 1 297.21 297.21 0 0 0 -7.29 49.68q-.22 3.25-.4 6.51c-.06 1-.11 2.1-.16 3.15 0 .87-.34 2.14.11 2.94a15.37 15.37 0 0 0 1.7 1.83 19.26 19.26 0 0 1 1.6 2.4 43.67 43.67 0 0 1 2.29 4.9 189.81 189.81 0 0 0 8.82 18.5c6.51 11.97 14.56 23.22 24.51 32.58a87 87 0 0 0 36.47 20.56 171 171 0 0 0 24 4.41c7.57.95 15.81 2.61 23.36.74a5.7 5.7 0 0 0 2.46-.93 7.41 7.41 0 0 0 1.26-2.62c.69-1.8-2.21-2.58-2.89-.79-.21.54-.46 1.07-.72 1.59l.89-.69c-5.41 1.87-11.28 1.23-16.86.59-5.78-.67-11.57-1.35-17.31-2.31-11-1.85-21.9-4.8-31.71-10.29-17.22-9.62-30.14-25.32-39.74-42.29-2.74-4.83-5.23-9.81-7.51-14.88s-3.95-11.19-8.27-15.09l.44 1.06a340.67 340.67 0 0 1 5.13-47.79q1.2-6.51 2.77-12.94l-1.05 1a85.13 85.13 0 0 1 10.69-1.11 36.45 36.45 0 0 1 8.73.49 15.64 15.64 0 0 1 7.48 3.59 22.55 22.55 0 0 1 4.78 6.77c2.66 5.4 4.55 11.24 6.65 16.87 2.29 6.15 4.56 12.31 7 18.42 4.74 12 10 23.87 16.9 34.86a200.78 200.78 0 0 0 22.91 29.45c9.56 10.36 19.88 20 30.26 29.5l-.44-1.06a20.21 20.21 0 0 1 -.95 4.21c-.73 1.87 2.2 2.66 2.82.84z" fill="#c68238"/><path d="m214 590.22a136.79 136.79 0 0 0 6.05 31 149 149 0 0 0 12.9 28.62 161 161 0 0 0 18.7 25.3 163.49 163.49 0 0 0 23.48 21 133.94 133.94 0 0 0 22.52 13.88 150.7 150.7 0 0 0 29.35 10.98 160.86 160.86 0 0 0 18 3.11 113.94 113.94 0 0 0 13.31 1 111.54 111.54 0 0 0 35.53-5.11 202 202 0 0 0 19.58-7.73 128.4 128.4 0 0 0 13.46-6.91 137.43 137.43 0 0 0 16.29-11.59 81.47 81.47 0 0 0 10.73-10.36c2.67-3.13 5.2-6.41 7.56-9.78a15.5 15.5 0 0 0 2.49-7.81 21.57 21.57 0 0 0 -10-20.92c-4.88-2.58-10.78-3.87-16.19-2.12l-5 2.12a21 21 0 0 0 -7.54 7.53c-.69 1-1.4 2-2.13 2.9l3.28-4.25a81.73 81.73 0 0 1 -14.44 14.23l4.25-3.28a120.54 120.54 0 0 1 -26.52 15.09l5-2.11c-8.77 3.68-17.87 6.79-27.32 8.1l5.58-.75a106.72 106.72 0 0 1 -27.89-.16l5.58.75a120.8 120.8 0 0 1 -30.69-8.47l5 2.12a134.26 134.26 0 0 1 -29.46-17.29l4.25 3.28a138 138 0 0 1 -24.5-24.45l3.29 4.25a129.58 129.58 0 0 1 -16.74-28.45l2.11 5a116.4 116.4 0 0 1 -8.1-29.35l.75 5.58c-.21-1.63-.4-3.27-.54-4.91a20.26 20.26 0 0 0 -12.91-19.26 15.87 15.87 0 0 0 -8.09-1.81c-5.44.25-11.07 2-14.85 6.15-3.58 3.9-6.65 9.37-6.15 14.85z" fill="#c1c1c1"/><g fill="#474751"><path d="m280.71 496.62a82.3 82.3 0 0 1 31.84 17.61c1.44 1.29 3.57-.83 2.13-2.12a85.66 85.66 0 0 0 -33.17-18.38 1.5 1.5 0 0 0 -.8 2.89z"/><path d="m317.94 519.29a1.5 1.5 0 0 0 0-3 1.5 1.5 0 0 0 0 3z"/><path d="m293.91 478.6c14.46 1.45 25.23 12.51 34.77 22.4 1.35 1.39 3.47-.73 2.12-2.12-10.19-10.57-21.51-21.74-36.89-23.28-1.91-.19-1.9 2.81 0 3z"/><path d="m333 507a1.5 1.5 0 0 0 0-3 1.5 1.5 0 0 0 0 3z"/><path d="m311.52 471a1.5 1.5 0 0 0 0-3 1.5 1.5 0 0 0 0 3z"/><path d="m317.66 471.57a1.5 1.5 0 0 0 0-3 1.5 1.5 0 0 0 0 3z"/><path d="m314.87 476.87a1.5 1.5 0 0 0 0-3 1.5 1.5 0 0 0 0 3z"/><path d="m275 508.69a1.5 1.5 0 0 0 0-3 1.5 1.5 0 0 0 0 3z"/><path d="m281.1 505.9a1.5 1.5 0 0 0 0-3 1.5 1.5 0 0 0 0 3z"/><path d="m282.22 510.36a1.5 1.5 0 0 0 0-3 1.5 1.5 0 0 0 0 3z"/></g><path d="m254.68 534.83c-8.47-8-19.94-12.6-32.14-10.52a37.08 37.08 0 0 0 -27.3 21.43c-7.94 18.35 1.27 42.22 19.89 49.85 15.16 6.2 35.35 4.19 46.54-8.68 13.33-15.32 6.47-39.31-6.99-52.08z" fill="#e5a54a"/><path d="m255.74 533.77a40.9 40.9 0 0 0 -24.22-11.33 37.15 37.15 0 0 0 -24.57 6.8 37.94 37.94 0 0 0 -14.45 19.64 39.74 39.74 0 0 0 -.07 22.18 41.08 41.08 0 0 0 11.4 19 39.43 39.43 0 0 0 20.56 9.7c15.64 2.62 33.95-2.37 42.05-17 7.92-14.35 3-32.55-6.79-44.68a43.77 43.77 0 0 0 -3.91-4.26c-1.39-1.33-3.52.79-2.12 2.12 10.38 9.86 16.78 26.06 12.38 40.24-4.67 15-20.73 21.89-35.43 21.24a40.34 40.34 0 0 1 -20.46-6.2 36.54 36.54 0 0 1 -12.95-15.78 38.32 38.32 0 0 1 -3-20.27 33.93 33.93 0 0 1 9.67-19.41 35.1 35.1 0 0 1 21-10.26 35.62 35.62 0 0 1 23.88 6.38 43.93 43.93 0 0 1 4.92 4c1.37 1.33 3.52-.78 2.11-2.11z" fill="#e5a54a"/><path d="m256.47 736.8a11.56 11.56 0 0 1 5.29-1l70.73-2.2 7.86 35.85a6.85 6.85 0 0 1 .23 2.62c-.42 2.52-3.29 3.71-5.75 4.39a189.3 189.3 0 0 1 -66.27 6.32 4.26 4.26 0 0 1 -4.71-3.88 186.58 186.58 0 0 1 -7.38-42.2" fill="#2c2c38"/><path d="m257.23 738.1c2-1 4.38-.81 6.53-.88l7.47-.23 14.69-.46 29.63-.92 16.94-.53-1.49-1.08 7 32c.28 1.3.57 2.59.85 3.88.23 1.11.42 2.19-.37 3.11-1.2 1.39-3.34 1.85-5 2.31q-7.54 2.07-15.26 3.5a187.24 187.24 0 0 1 -31.43 3.12c-5.22.08-10.45-.06-15.65-.41a33.32 33.32 0 0 1 -3.48-.3 2.5 2.5 0 0 1 -2.16-1.93c-.86-2.4-1.44-5-2.08-7.41a187.2 187.2 0 0 1 -5.42-35.19c-.11-1.92-3.11-1.93-3 0a191.75 191.75 0 0 0 5 33.62q1 4.07 2.15 8.07c.67 2.3 1.41 4.6 3.88 5.46a12.79 12.79 0 0 0 3.26.49q2.25.18 4.5.3 4.14.23 8.3.26a191.29 191.29 0 0 0 33.71-2.66q8.19-1.38 16.24-3.47c3.83-1 9.87-2.15 10.11-7.14a18 18 0 0 0 -.76-4.52l-1.06-4.84-2.13-9.69-4.25-19.38a1.5 1.5 0 0 0 -1.44-1.1l-60.79 1.92-8.71.27c-2.51.08-5 .09-7.3 1.27-1.71.89-.2 3.47 1.52 2.59z" fill="#2c2c38"/><path d="m221.92 582.58c-.58-2.11-1.88-4.29-1.07-6.32.53-1.36 1.86-2.19 2.89-3.23 4.51-4.5 2.95-12.15.14-17.87-3.36-6.87-8.31-13.27-15.19-16.6a13.58 13.58 0 0 0 -7.44-1.56l-.65.11a36.12 36.12 0 0 0 -5.36 8.63c-7.94 18.35 1.27 42.22 19.89 49.85l.22.08c.32-.16.64-.32 1-.51 4.21-2.51 6.89-7.82 5.57-12.58z" fill="#d6903c"/><path d="m223.37 582.18a22.44 22.44 0 0 1 -1.26-4.17c-.14-1.54 1-2.37 2-3.29a11.3 11.3 0 0 0 3.66-6.32c1-5-.69-10.24-3-14.7a39.93 39.93 0 0 0 -9.9-12.87 27.11 27.11 0 0 0 -7.09-4.27c-2.29-.91-6.88-2.28-8.72 0a37.44 37.44 0 0 0 -7.92 28.34 41.76 41.76 0 0 0 12 24.59 36.45 36.45 0 0 0 6 4.75 34 34 0 0 0 3.29 1.83c1.27.61 2.5 1.41 3.87.73 5.22-2.63 8.4-8.91 6.94-14.63-.48-1.87-3.38-1.08-2.9.8 1.21 4.69-1.73 9.33-5.88 11.4l1.16-.16c-13.94-5.42-22.3-21-21.85-35.49a34.44 34.44 0 0 1 2.23-10.72 32.27 32.27 0 0 1 3.19-6.35 12.78 12.78 0 0 1 2.09-2.93c.33-.28.72-.27 1.36-.26a9.53 9.53 0 0 1 2.06.26c8.72 2 15.19 10.73 18.53 18.53 1.64 3.82 2.95 8.95.88 12.86-1.11 2.09-3.42 3.15-4.45 5.26-1.24 2.58.11 5.14.85 7.64.49 1.81 3.41.99 2.86-.83z" fill="#d6903c"/><path d="m468.22 618.4c-9.15-2.6-19.15-1.57-27.17 4.53a30.21 30.21 0 0 0 -11.62 25.78c1.2 16.24 16.85 30 33.17 28.48 13.29-1.25 27.1-10.32 30.32-23.84 3.84-16.08-10.17-30.81-24.7-34.95z" fill="#e5a54a"/><path d="m468.62 617a33.5 33.5 0 0 0 -21.35.77 30.78 30.78 0 0 0 -15.6 14 31.39 31.39 0 0 0 -3.37 20 32.5 32.5 0 0 0 8.59 16.67 33.6 33.6 0 0 0 16 9.5 32.78 32.78 0 0 0 18.85-1.17c12.13-4.22 23-14.76 23.34-28.28.29-13.36-10.24-24.84-21.95-29.86a39.37 39.37 0 0 0 -4.49-1.62c-1.86-.54-2.65 2.36-.8 2.9 11.15 3.23 21.74 12.43 23.91 24.21 2.25 12.09-6.38 22.88-16.75 27.99a33.25 33.25 0 0 1 -16.95 3.61 29 29 0 0 1 -15.71-6.39 31 31 0 0 1 -9.86-13.55 27.53 27.53 0 0 1 -.17-18 28.15 28.15 0 0 1 13.69-16.22c6.73-3.47 14.59-3.72 21.79-1.71a1.51 1.51 0 0 0 .83-2.85z" fill="#e5a54a"/><path d="m462.59 665.23c-1.21-1.3-3-2.38-3.16-4.15-.12-1.18.52-2.29.88-3.43 1.55-4.95-2.46-9.88-6.65-12.95-5-3.69-11-6.44-17.23-6.25a11.07 11.07 0 0 0 -6 1.68c-.15.1-.28.22-.42.33a28.92 28.92 0 0 0 -.62 8.25c1.2 16.24 16.85 30 33.17 28.48h.19c.17-.23.34-.47.5-.72 2.16-3.47 2.09-8.3-.66-11.24z" fill="#d6903c"/><path d="m463.65 664.17c-.67-.69-1.46-1.29-2.08-2-.84-1-.65-1.81-.23-3a10.07 10.07 0 0 0 .47-6.25c-1.16-4.41-4.81-7.77-8.43-10.27a31.15 31.15 0 0 0 -12.77-5.42 20.34 20.34 0 0 0 -7.09 0c-1.94.4-4.64 1.29-5.06 3.46a30.8 30.8 0 0 0 5.31 23.85 34.28 34.28 0 0 0 18.76 13.21 30 30 0 0 0 6.39 1 26.44 26.44 0 0 0 3.33 0 2.82 2.82 0 0 0 2.51-1.83 11 11 0 0 0 -1.11-12.72c-1.28-1.44-3.4.69-2.12 2.12 2.57 2.88 2.08 7.16 0 10.12l1.3-.75c-12.15 1.35-24-6.48-29.18-17.2a27.14 27.14 0 0 1 -2.56-8.53 27.59 27.59 0 0 1 -.09-5.6 10.22 10.22 0 0 1 .44-3 3 3 0 0 1 .54-.32 7.33 7.33 0 0 1 1.57-.62c7-2 15.14 2 20.37 6.39 2.73 2.29 5.9 5.86 5.18 9.73-.37 2-1.6 3.59-.92 5.66.58 1.76 2.15 2.86 3.39 4.14s3.43-.78 2.08-2.17z" fill="#d6903c"/><path d="m299.71 737c1.72-1.61 3.38 5.28 3.6 6q1.56 5 3 10 2.94 9.93 5.57 19.94a1.5 1.5 0 0 0 2.89-.8q-3.13-11.89-6.68-23.67a112.55 112.55 0 0 0 -3.52-11.14c-1.15-2.73-4.43-4.88-7-2.47-1.41 1.32.71 3.44 2.12 2.12z" fill="#474751"/><path d="m313.75 778.55a1.5 1.5 0 0 0 0-3 1.5 1.5 0 0 0 0 3z" fill="#474751"/><g fill="#ffbc64"><path d="m334.89 567.14a63.47 63.47 0 0 0 14.18-.38 1.5 1.5 0 0 0 1.05-1.84 1.54 1.54 0 0 0 -1.85-1 60.48 60.48 0 0 1 -13.38.27 1.51 1.51 0 0 0 -1.5 1.5 1.53 1.53 0 0 0 1.5 1.5z"/><path d="m336.62 581.45a63.47 63.47 0 0 0 14.18-.38 1.51 1.51 0 0 0 1.05-1.84 1.54 1.54 0 0 0 -1.85-1.05 60.48 60.48 0 0 1 -13.38.27 1.51 1.51 0 0 0 -1.5 1.5 1.53 1.53 0 0 0 1.5 1.5z"/><path d="m338.35 595.76a63.47 63.47 0 0 0 14.18-.38 1.51 1.51 0 0 0 1.05-1.84 1.54 1.54 0 0 0 -1.85-1 60.48 60.48 0 0 1 -13.38.27 1.51 1.51 0 0 0 -1.5 1.5 1.53 1.53 0 0 0 1.5 1.5z"/></g><g fill="#2c2c38"><path d="m460.8 624.28c.41-1-.4.89-.09.21.13-.29.25-.59.38-.88.24-.51.48-1 .74-1.54.5-1 1-2 1.6-3a60.33 60.33 0 0 1 4-6c.47-.64-.74.92-.24.31l.6-.74c.36-.44.73-.88 1.11-1.31q1.19-1.37 2.46-2.64c.81-.81 1.64-1.59 2.49-2.35l1.45-1.24c.37-.3 2-1.54.58-.48a6.56 6.56 0 0 0 2.75-3.58 6.1 6.1 0 0 0 -.6-4.62c-1.59-2.46-5.54-4.19-8.21-2.16a65.61 65.61 0 0 0 -12.52 12.45 61.72 61.72 0 0 0 -8.06 14.43 6 6 0 0 0 .6 4.62 6 6 0 0 0 8.21 2.16 7 7 0 0 0 2.76-3.59z"/><path d="m474 637.42c.55-.91 1.13-1.8 1.75-2.66a4.12 4.12 0 0 1 .57-.78c-.26.16-.89 1.14-.25.34q.49-.63 1-1.23a42 42 0 0 1 4.64-4.6 7.34 7.34 0 0 1 1.24-1c-.32.16-1.11.84-.32.26.21-.16.42-.32.64-.47.87-.62 1.76-1.2 2.67-1.75s1.94-1.11 2.94-1.6c.48-.24 1-.47 1.44-.68.9-.4-.07 0-.4.16.28-.14.59-.24.88-.36a6.46 6.46 0 0 0 3.59-2.75 6.18 6.18 0 0 0 .61-4.63c-.92-2.83-4.25-5.41-7.39-4.19a48.5 48.5 0 0 0 -24 19.88 6.06 6.06 0 0 0 2.15 8.21 6.13 6.13 0 0 0 8.21-2.15z"/><path d="m485.55 654.5.5-.39-1.21.94a42.31 42.31 0 0 1 9.33-5.44l-1.43.6a43.22 43.22 0 0 1 8.85-2.6 6 6 0 0 0 3.58-2.75 6 6 0 0 0 -2.15-8.21 6.77 6.77 0 0 0 -4.62-.61 48.17 48.17 0 0 0 -21.33 10 6 6 0 0 0 -1.76 4.24 6 6 0 0 0 6 6 6.94 6.94 0 0 0 4.24-1.76z"/></g><g fill="#d6d6d6"><path d="m234.48 638.33a39.23 39.23 0 0 1 25.23-16.26c1.9-.35 1.09-3.24-.8-2.9a42.21 42.21 0 0 0 -27 17.64c-1.09 1.6 1.51 3.1 2.59 1.52z"/><path d="m261.55 677.81c4.39-7.83 9.36-16.67 18.24-20 1.79-.68 1-3.58-.8-2.9-9.72 3.7-15.19 12.79-20 21.43-.94 1.68 1.65 3.2 2.6 1.51z"/><path d="m299.09 702.4a47.8 47.8 0 0 1 17.78-24.18c1.57-1.1.07-3.71-1.51-2.59a51.14 51.14 0 0 0 -19.16 26c-.6 1.84 2.3 2.63 2.89.8z"/><path d="m357.65 718a63.11 63.11 0 0 1 .51-29.62 1.5 1.5 0 0 0 -2.89-.8 66.44 66.44 0 0 0 -.51 31.22c.42 1.88 3.31 1.08 2.89-.8z"/><path d="m401.79 674.35a62.07 62.07 0 0 0 14.21 34.24c1.24 1.49 3.35-.65 2.12-2.12a58.57 58.57 0 0 1 -13.31-32.12c-.17-1.9-3.17-1.92-3 0z"/></g><path d="m417.19 653.88c-4.68 5.63-6.26 12.81-7.63 19.83-.36 1.88 2.53 2.69 2.9.79 1.25-6.42 2.56-13.33 6.85-18.5a1.54 1.54 0 0 0 0-2.12 1.5 1.5 0 0 0 -2.12 0z" fill="#c1c1c1"/><path d="m342.53 762.05c-39.11.42-79.69 1.17-114.93 18.15-2.08 1-4.29 2.22-5.17 4.36-1 2.51.16 5.35 1.36 7.79 9.31 18.85 21.42 37.43 39.76 47.72 9.12 5.12 19.39 7.93 29.73 9.53 19.79 3.07 40.68 1.72 58.79-6.84s33-25 37-44.57c1.5-7.38 1.35-15.46-2.46-22-4-6.74-11.39-10.86-19-12.58s-17.28-2-25.09-1.6" fill="#e5a54a"/><path d="m342.53 760.55c-14.91.16-29.83.36-44.71 1.48a240.69 240.69 0 0 0 -43.93 7 156.71 156.71 0 0 0 -20.79 7.1c-3.11 1.31-6.57 2.55-9.29 4.58a7.63 7.63 0 0 0 -2.87 8.64c.91 3.26 2.81 6.36 4.38 9.34s3.21 5.9 4.94 8.78a124.31 124.31 0 0 0 11.61 16.31 75.7 75.7 0 0 0 33.35 23.11 110.2 110.2 0 0 0 22 4.81 117.67 117.67 0 0 0 22.12.72c14.12-.91 28.26-4.61 40.39-12a69.73 69.73 0 0 0 25.44-26.76c5.83-11.21 9.59-26.68 2.66-38.25-7.17-11.95-22.14-14.41-34.9-14.85-3.46-.12-6.93-.08-10.4.09-1.92.09-1.93 3.09 0 3a102.55 102.55 0 0 1 20.65.8c6.09.93 12.16 2.8 17 6.75 10.56 8.59 9.42 23.31 5.09 34.89-4.16 11.14-12 20.84-21.48 27.94-10.55 7.91-23.1 12.57-36.08 14.55a114.51 114.51 0 0 1 -42.42-1.92 79.67 79.67 0 0 1 -19.81-7.14 69.16 69.16 0 0 1 -15.4-11.31c-9.17-8.81-16.16-19.62-22.09-30.81-1.51-2.85-3.41-5.86-4.23-9-.94-3.65 1.68-5.39 4.58-6.79a140.26 140.26 0 0 1 19.78-7.73c27.16-8.45 55.91-9.66 84.15-10.09 3.42-.06 6.83-.1 10.25-.13a1.5 1.5 0 0 0 0-3z" fill="#e5a54a"/><path d="m306.31 842.76c18.11-8.56 33-25 37-44.57 1.5-7.38 1.36-15.46-2.46-22-4-6.74-11.38-10.86-19-12.58h-.06a40.89 40.89 0 0 0 -10.64-.89c-28.94 1.27-57.69 5-83.56 17.45-2.08 1-4.29 2.22-5.17 4.36-1 2.51.16 5.35 1.36 7.79 9.31 18.85 21.42 37.43 39.76 47.72a67.91 67.91 0 0 0 6.75 3.3 44 44 0 0 0 35.84-.53z" fill="#d6903c"/><path d="m307.07 844.05c17.71-8.43 32.66-24.27 37.3-43.64 2.48-10.35 1.88-22.09-6.14-29.94a32.34 32.34 0 0 0 -13-7.48c-5.56-1.73-11.22-1.88-17-1.6-23.78 1.19-47.85 4.16-70.21 12.72q-4.18 1.6-8.27 3.45c-2.37 1.08-5 2.1-6.9 3.91-4.52 4.28-1.07 10.21 1.21 14.67a144.09 144.09 0 0 0 17.17 26.86 76.85 76.85 0 0 0 24.47 19.9c10.49 5.21 22.24 7 33.67 4a45.91 45.91 0 0 0 7.7-2.85c1.75-.82.22-3.41-1.51-2.59a42.67 42.67 0 0 1 -31.58 1.7c-9.8-3.27-18.54-9.52-25.72-16.86a116.89 116.89 0 0 1 -17.55-24q-1.89-3.33-3.64-6.73a38.81 38.81 0 0 1 -3.24-7c-.75-2.67.26-4.58 2.56-6a59.72 59.72 0 0 1 7.32-3.47c20.69-8.91 43.25-12.54 65.59-14.13 5.6-.4 11.37-1 17-.6a34.54 34.54 0 0 1 14.4 4.25 23.13 23.13 0 0 1 9.68 9.88c2.28 4.66 2.67 10 2.17 15.15-1.86 18.79-15.07 35.18-30.87 44.6-2 1.18-4 2.26-6.1 3.25-1.77.79-.25 3.38 1.49 2.55z" fill="#d6903c"/><path d="m520.72 678.72c.17.12 1.12.79.34.23s0 0 .14.15c.44.38.87.78 1.28 1.19s.88 1 1.31 1.45c.59.69-.09-.27-.22-.3.17 0 .49.67.58.8a28.87 28.87 0 0 1 1.83 3c.28.52.54 1 .79 1.59 0 .09.57 1.29.17.36s.1.29.13.38c2 5.39 2.82 11.15 3.58 16.83a6 6 0 0 0 2.76 3.58 6 6 0 0 0 8.21-2.15 7.07 7.07 0 0 0 .6-4.62c-.81-6.07-1.66-12.22-4-17.92a33.09 33.09 0 0 0 -11.43-14.95c-2.57-1.82-6.79-.55-8.21 2.15-1.63 3.08-.59 6.26 2.15 8.21z" fill="#2c2c38"/><path d="m533.11 666.83h1.2c1.13.06-.95-.19-.2 0s1.44.28 2.15.48c.38.11.77.23 1.14.37l.38.14c.49.19.5.19 0 0s-.46-.19 0 0l.36.18c.36.18.71.38 1.05.58s.67.44 1 .66c.91.59-.62-.56-.11-.1a20 20 0 0 1 1.5 1.41c.15.15.89 1 .26.26s.15.27.27.46.34.79.44.81c-.32-.82-.4-1-.24-.59a5.34 5.34 0 0 1 .18.52c.09.3.14.6.21.89.17.68 0-1.36-.08-.3v.74l.12-.86a7.54 7.54 0 0 0 -.26 1.09l-.12.35c-.18.47-.17.47 0 0s.2-.5 0 0l-.18.33a5.75 5.75 0 0 0 -.61 1l.48-.61c-.16.2-.32.39-.49.58-.44.49-.94.92-1.42 1.37-1 1 1.06-.71-.08.08l-.84.58c-1.32.87-2.71 1.63-4.1 2.38a6.06 6.06 0 0 0 -2.15 8.21 6.12 6.12 0 0 0 8.21 2.15c3.49-1.9 7.09-4 9.59-7.17 3.1-3.93 4.82-8.91 3.32-13.9-2.66-8.8-12.27-13.82-21-14a6.05 6.05 0 0 0 -6 6 6.12 6.12 0 0 0 6 6z" fill="#2c2c38"/><g fill="#a179aa"><path d="m508.32 704.14v20l202.05 1.45v-21.45z"/><path d="m506.82 704.14v20a1.52 1.52 0 0 0 1.5 1.5h5.41l14.72.11 21.66.15 26.54.19 29.07.21 29.35.21 27.37.2 23 .16 16.65.12c2.63 0 5.27.11 7.9.06h.34a1.52 1.52 0 0 0 1.5-1.5v-21.41a1.52 1.52 0 0 0 -1.5-1.5h-193.77c-2.63 0-5.27-.07-7.9 0h-.34a1.5 1.5 0 0 0 0 3h193.81c2.6 0 5.3.21 7.9 0h.34l-1.5-1.5v21.49l1.5-1.5h-5.41l-14.72-.1-21.66-.16-26.58-.23-29-.21-29.35-.21-27.4-.22-23-.17-16.65-.12c-2.6 0-5.3-.24-7.9 0h-.34l1.5 1.5v-20a1.5 1.5 0 0 0 -3.04-.07z"/><path d="m690.31 722.91 17.84 9.14 93.42-179.16-19.14-9.8z"/><path d="m689.55 724.21 17.84 9.14a1.53 1.53 0 0 0 2.05-.54l2.5-4.8 6.81-13 10-19.21 12.25-23.58 13.45-25.78 13.57-26 12.65-24.26 10.65-20.43 7.7-14.77c1.22-2.33 2.47-4.65 3.65-7l.16-.3a1.52 1.52 0 0 0 -.54-2l-16.71-8.68-2.39-1.22a1.52 1.52 0 0 0 -2.05.53l-2.47 4.82-6.67 13.11-9.87 19.28-12.13 23.62-13.27 25.86-13.39 26.12-12.48 24.38-10.5 20.5-7.59 14.82c-1.2 2.34-2.44 4.67-3.6 7l-.16.3c-.88 1.72 1.71 3.24 2.59 1.52l2.47-4.82 6.71-13.09 9.88-19.28 12.1-23.62 13.24-25.83 13.39-26.12 12.48-24.36 10.5-20.5 7.63-14.84c1.19-2.31 2.62-4.62 3.6-7l.16-.3-2.05.54 16.71 8.58 2.39 1.23-.54-2.06-2.5 4.8-6.77 13.03-10 19.21-12.27 23.53-13.49 25.76-13.58 26-12.66 24.3-10.65 20.43-7.69 14.77c-1.2 2.3-2.64 4.6-3.65 7 0 .1-.11.2-.16.3l2-.54-17.84-9.14c-1.66-.88-3.18 1.7-1.46 2.59z"/></g><g fill="#d6d6d6"><path d="m472.84 733a7.32 7.32 0 0 0 3.64 6.32l14.38 8.34a7.31 7.31 0 0 1 3.64 6.33v94.83h313.12v-93.39a29.8 29.8 0 0 0 -29.8-29.8h-297.67a7.31 7.31 0 0 0 -7.31 7.37z"/><path d="m471.34 733c0 5.93 5.37 8.19 9.72 10.71l7 4c1.89 1.1 3.85 2 4.65 4.28.57 1.6.33 3.64.33 5.31v85.5c0 1.89-.12 3.82 0 5.71a2.26 2.26 0 0 1 0 .26 1.52 1.52 0 0 0 1.5 1.5h300.4c4 0 8.11.08 12.15 0h.53a1.52 1.52 0 0 0 1.5-1.5v-89.95c0-1.13 0-2.26 0-3.39a31.37 31.37 0 0 0 -6-18.36 31.74 31.74 0 0 0 -25.67-12.94h-279.57c-5.88 0-11.77-.14-17.64 0a9 9 0 0 0 -8.9 8.82c-.06 1.93 2.94 1.92 3 0a5.94 5.94 0 0 1 6.15-5.82h294.65a37.77 37.77 0 0 1 10.42 1.07 28.61 28.61 0 0 1 20.56 27.36c.07 13.56 0 27.14 0 40.71v52.5l1.5-1.5h-300.44c-4 0-8.16-.32-12.15 0a4.68 4.68 0 0 1 -.53 0l1.5 1.5v-78.28c0-5.47.12-11 0-16.43a9 9 0 0 0 -3.27-7 33.71 33.71 0 0 0 -4.34-2.64c-3.71-2.16-7.52-4.2-11.15-6.48a5.91 5.91 0 0 1 -2.9-5 1.5 1.5 0 0 0 -3 .06z"/></g></svg>